<?xml version="1.0" encoding="UTF-8" standalone="no"?>
<!-- Created with Inkscape (http://www.inkscape.org/) -->

<svg
   version="1.1"
   id="svg1"
   width="204"
   height="57"
   viewBox="18.00 142.30 204.00 56.70"
   sodipodi:docname="DB logo_horizontal.eps"
   xmlns:inkscape="http://www.inkscape.org/namespaces/inkscape"
   xmlns:sodipodi="http://sodipodi.sourceforge.net/DTD/sodipodi-0.dtd"
   xmlns="http://www.w3.org/2000/svg"
   xmlns:svg="http://www.w3.org/2000/svg">
  <defs
     id="defs1">
    <linearGradient
       x1="0"
       y1="0"
       x2="1"
       y2="0"
       gradientUnits="userSpaceOnUse"
       gradientTransform="matrix(0,-97.0331,-97.0331,0,595.278,542.39)"
       spreadMethod="pad"
       id="linearGradient44">
      <stop
         style="stop-opacity:1;stop-color:#7d5d47"
         offset="0"
         id="stop40" />
      <stop
         style="stop-opacity:1;stop-color:#7d5d47"
         offset="0.0716559"
         id="stop41" />
      <stop
         style="stop-opacity:1;stop-color:#9f8672"
         offset="0.312927"
         id="stop42" />
      <stop
         style="stop-opacity:1;stop-color:#c7b2a0"
         offset="0.604311"
         id="stop43" />
      <stop
         style="stop-opacity:1;stop-color:#7d5d47"
         offset="1"
         id="stop44" />
    </linearGradient>
    <clipPath
       clipPathUnits="userSpaceOnUse"
       id="clipPath44">
      <path
         d="m 589.91401,462.32001 c 18.45701,0 25.64901,11.27 25.64901,30.539 0,19.27 -8.411,32.7 -25.10201,32.7 h -15.746 v -63.239 z m -34.871,80.071 h 37.859 c 25.91801,0 42.61001,-20.903 42.61001,-49.532 0,-15.738 -5.293,-29.589 -15.473,-38.14 -7.191,-5.969 -16.555,-9.36 -28.76901,-9.36 h -36.227 z"
         id="path44" />
    </clipPath>
    <linearGradient
       x1="0"
       y1="0"
       x2="1"
       y2="0"
       gradientUnits="userSpaceOnUse"
       gradientTransform="matrix(0,-97.0331,-97.0331,0,711.872,542.39)"
       spreadMethod="pad"
       id="linearGradient49">
      <stop
         style="stop-opacity:1;stop-color:#7d5d47"
         offset="0"
         id="stop45" />
      <stop
         style="stop-opacity:1;stop-color:#7d5d47"
         offset="0.0716559"
         id="stop46" />
      <stop
         style="stop-opacity:1;stop-color:#9f8672"
         offset="0.312927"
         id="stop47" />
      <stop
         style="stop-opacity:1;stop-color:#c7b2a0"
         offset="0.604311"
         id="stop48" />
      <stop
         style="stop-opacity:1;stop-color:#7d5d47"
         offset="1"
         id="stop49" />
    </linearGradient>
    <clipPath
       clipPathUnits="userSpaceOnUse"
       id="clipPath49">
      <path
         d="m 693.07402,499.51201 h 20.903 c 10.718,0 16.011,5.558 16.011,13.297 0,7.871 -5.023,13.703 -15.472,13.703 h -21.442 z m -19.672,42.879 h 44.504 c 18.727,0 31.219,-10.852 31.219,-27.012 0,-11.399 -5.293,-20.078 -17.777,-23.469 v -0.41 c 8.953,-2.57 13.57,-7.738 14.789,-19.539 1.355,-13.711 0.816,-24.16 4.207,-25.652 v -0.95 h -18.867 c -2.442,1.09 -2.711,11.95 -3.532,22.403 -0.804,10.578 -6.777,16.547 -18.996,16.547 h -15.875 v -38.95 h -19.672 z"
         id="path49" />
    </clipPath>
    <linearGradient
       x1="0"
       y1="0"
       x2="1"
       y2="0"
       gradientUnits="userSpaceOnUse"
       gradientTransform="matrix(0,-19.6744,-19.6744,0,774.336,465.04)"
       spreadMethod="pad"
       id="linearGradient54">
      <stop
         style="stop-opacity:1;stop-color:#7d5d47"
         offset="0"
         id="stop50" />
      <stop
         style="stop-opacity:1;stop-color:#7d5d47"
         offset="0.0716559"
         id="stop51" />
      <stop
         style="stop-opacity:1;stop-color:#9f8672"
         offset="0.312927"
         id="stop52" />
      <stop
         style="stop-opacity:1;stop-color:#c7b2a0"
         offset="0.604311"
         id="stop53" />
      <stop
         style="stop-opacity:1;stop-color:#7d5d47"
         offset="1"
         id="stop54" />
    </linearGradient>
    <clipPath
       clipPathUnits="userSpaceOnUse"
       id="clipPath54">
      <path
         d="m 774.26602,465.03901 h 0.14 c 5.434,0 9.836,-4.41 9.836,-9.84 v 0 c 0,-5.429 -4.402,-9.84 -9.836,-9.84 h -0.14 c -5.43,0 -9.836,4.411 -9.836,9.84 v 0 c 0,5.43 4.406,9.84 9.836,9.84 z"
         id="path54" />
    </clipPath>
    <linearGradient
       x1="0"
       y1="0"
       x2="1"
       y2="0"
       gradientUnits="userSpaceOnUse"
       gradientTransform="matrix(0,-97.0331,-97.0331,0,878.691,542.39)"
       spreadMethod="pad"
       id="linearGradient59">
      <stop
         style="stop-opacity:1;stop-color:#7d5d47"
         offset="0"
         id="stop55" />
      <stop
         style="stop-opacity:1;stop-color:#7d5d47"
         offset="0.0716559"
         id="stop56" />
      <stop
         style="stop-opacity:1;stop-color:#9f8672"
         offset="0.312927"
         id="stop57" />
      <stop
         style="stop-opacity:1;stop-color:#c7b2a0"
         offset="0.604311"
         id="stop58" />
      <stop
         style="stop-opacity:1;stop-color:#7d5d47"
         offset="1"
         id="stop59" />
    </linearGradient>
    <clipPath
       clipPathUnits="userSpaceOnUse"
       id="clipPath59">
      <path
         d="m 859.62502,461.64101 h 22.668 c 9.492,0 15.195,5.3 15.195,13.168 0,9.23 -6.789,13.98 -15.746,13.98 h -22.117 z m 21.309,41.668 c 8.546,0 14.379,4.07 14.379,11.671 0,7.192 -5.293,11.399 -13.977,11.399 h -21.711 v -23.07 z m -40.985,39.082 h 43.43 c 10.441,0 18.445,-2.582 23.473,-7.059 5.293,-4.742 7.738,-10.582 7.738,-18.184 0,-9.91 -6.113,-16.289 -15.207,-19.41 v -0.406 c 10.726,-3.121 18.051,-12.07 18.051,-24.012 0,-9.09 -2.844,-15.34 -8.547,-20.218 -5.567,-4.891 -14.114,-7.743 -24.434,-7.743 h -44.504 z"
         id="path59" />
    </clipPath>
    <linearGradient
       x1="0"
       y1="0"
       x2="1"
       y2="0"
       gradientUnits="userSpaceOnUse"
       gradientTransform="matrix(0,-97.0331,-97.0331,0,994.877,542.39)"
       spreadMethod="pad"
       id="linearGradient64">
      <stop
         style="stop-opacity:1;stop-color:#7d5d47"
         offset="0"
         id="stop60" />
      <stop
         style="stop-opacity:1;stop-color:#7d5d47"
         offset="0.0716559"
         id="stop61" />
      <stop
         style="stop-opacity:1;stop-color:#9f8672"
         offset="0.312927"
         id="stop62" />
      <stop
         style="stop-opacity:1;stop-color:#c7b2a0"
         offset="0.604311"
         id="stop63" />
      <stop
         style="stop-opacity:1;stop-color:#7d5d47"
         offset="1"
         id="stop64" />
    </linearGradient>
    <clipPath
       clipPathUnits="userSpaceOnUse"
       id="clipPath64">
      <path
         d="m 956.13702,542.39101 h 19.676 v -38 H 1013.94 v 38 h 19.68 v -97.032 h -19.68 v 42.75 h -38.12698 v -42.75 h -19.676 z"
         id="path64" />
    </clipPath>
    <linearGradient
       x1="0"
       y1="0"
       x2="1"
       y2="0"
       gradientUnits="userSpaceOnUse"
       gradientTransform="matrix(0,-97.0331,-97.0331,0,1112.84,542.39)"
       spreadMethod="pad"
       id="linearGradient69">
      <stop
         style="stop-opacity:1;stop-color:#7d5d47"
         offset="0"
         id="stop65" />
      <stop
         style="stop-opacity:1;stop-color:#7d5d47"
         offset="0.0716559"
         id="stop66" />
      <stop
         style="stop-opacity:1;stop-color:#9f8672"
         offset="0.312927"
         id="stop67" />
      <stop
         style="stop-opacity:1;stop-color:#c7b2a0"
         offset="0.604311"
         id="stop68" />
      <stop
         style="stop-opacity:1;stop-color:#7d5d47"
         offset="1"
         id="stop69" />
    </linearGradient>
    <clipPath
       clipPathUnits="userSpaceOnUse"
       id="clipPath69">
      <path
         d="m 1099.6,481.05101 h 25.65 l -8.68,27.961 c -1.63,5.16 -3.94,14.929 -3.94,14.929 h -0.27 c 0,0 -2.44,-9.769 -4.07,-14.929 z m 2.86,61.34 h 20.35 l 34.2,-97.032 h -20.49 l -6.52,20.629 h -35.01 l -6.38,-20.629 h -19.95 z"
         id="path69" />
    </clipPath>
    <linearGradient
       x1="0"
       y1="0"
       x2="1"
       y2="0"
       gradientUnits="userSpaceOnUse"
       gradientTransform="matrix(0,-100.963,-100.963,0,1225.21,544.29)"
       spreadMethod="pad"
       id="linearGradient74">
      <stop
         style="stop-opacity:1;stop-color:#7d5d47"
         offset="0"
         id="stop70" />
      <stop
         style="stop-opacity:1;stop-color:#7d5d47"
         offset="0.0716559"
         id="stop71" />
      <stop
         style="stop-opacity:1;stop-color:#9f8672"
         offset="0.312927"
         id="stop72" />
      <stop
         style="stop-opacity:1;stop-color:#c7b2a0"
         offset="0.604311"
         id="stop73" />
      <stop
         style="stop-opacity:1;stop-color:#7d5d47"
         offset="1"
         id="stop74" />
    </linearGradient>
    <clipPath
       clipPathUnits="userSpaceOnUse"
       id="clipPath74">
      <path
         d="m 1254.6,458.37901 h -0.27 c -6.65,-11.109 -15.74,-15.051 -27.28,-15.051 -14.66,0 -26.06,5.293 -34.06,14.113 -8.01,8.95 -12.63,21.45 -12.63,36.09 0,16.16 5.71,30.27 15.89,39.629 7.86,7.199 18.18,11.129 31.21,11.129 24.43,0 38.4,-13.43 41.52,-32.43 h -19.27 c -2.17,9.36 -9.36,16.153 -21.84,16.153 -18.33,0 -27.42,-15.203 -27.42,-34.481 0,-19.812 10.45,-34.332 27.15,-34.332 15.05,0 24.97,11.27 24.97,21.992 v 0.539 h -23.35 v 15.2 h 40.85 v -51.571 h -14.79 z"
         id="path74" />
    </clipPath>
    <linearGradient
       x1="0"
       y1="0"
       x2="1"
       y2="0"
       gradientUnits="userSpaceOnUse"
       gradientTransform="matrix(0,-97.0331,-97.0331,0,1348.06,542.39)"
       spreadMethod="pad"
       id="linearGradient79">
      <stop
         style="stop-opacity:1;stop-color:#7d5d47"
         offset="0"
         id="stop75" />
      <stop
         style="stop-opacity:1;stop-color:#7d5d47"
         offset="0.0716559"
         id="stop76" />
      <stop
         style="stop-opacity:1;stop-color:#9f8672"
         offset="0.312927"
         id="stop77" />
      <stop
         style="stop-opacity:1;stop-color:#c7b2a0"
         offset="0.604311"
         id="stop78" />
      <stop
         style="stop-opacity:1;stop-color:#7d5d47"
         offset="1"
         id="stop79" />
    </linearGradient>
    <clipPath
       clipPathUnits="userSpaceOnUse"
       id="clipPath79">
      <path
         d="m 1334.83,481.05101 h 25.64 l -8.68,27.961 c -1.63,5.16 -3.94,14.929 -3.94,14.929 h -0.27 c 0,0 -2.44,-9.769 -4.07,-14.929 z m 2.85,61.34 h 20.35 l 34.2,-97.032 h -20.49 l -6.52,20.629 h -35.01 l -6.38,-20.629 h -19.94 z"
         id="path79" />
    </clipPath>
    <linearGradient
       x1="0"
       y1="0"
       x2="1"
       y2="0"
       gradientUnits="userSpaceOnUse"
       gradientTransform="matrix(0,-97.0331,-97.0331,0,1443.89,542.39)"
       spreadMethod="pad"
       id="linearGradient84">
      <stop
         style="stop-opacity:1;stop-color:#7d5d47"
         offset="0"
         id="stop80" />
      <stop
         style="stop-opacity:1;stop-color:#7d5d47"
         offset="0.0716559"
         id="stop81" />
      <stop
         style="stop-opacity:1;stop-color:#9f8672"
         offset="0.312927"
         id="stop82" />
      <stop
         style="stop-opacity:1;stop-color:#c7b2a0"
         offset="0.604311"
         id="stop83" />
      <stop
         style="stop-opacity:1;stop-color:#7d5d47"
         offset="1"
         id="stop84" />
    </linearGradient>
    <clipPath
       clipPathUnits="userSpaceOnUse"
       id="clipPath84">
      <path
         d="m 1404.87,542.39101 h 78.03 v -16.563 h -29.17 v -80.469 h -19.68 v 80.469 h -29.18 z"
         id="path84" />
    </clipPath>
    <linearGradient
       x1="0"
       y1="0"
       x2="1"
       y2="0"
       gradientUnits="userSpaceOnUse"
       gradientTransform="matrix(0,-36.3755,-36.3755,0,1527.51,542.39)"
       spreadMethod="pad"
       id="linearGradient89">
      <stop
         style="stop-opacity:1;stop-color:#7d5d47"
         offset="0"
         id="stop85" />
      <stop
         style="stop-opacity:1;stop-color:#7d5d47"
         offset="0.0716559"
         id="stop86" />
      <stop
         style="stop-opacity:1;stop-color:#9f8672"
         offset="0.312927"
         id="stop87" />
      <stop
         style="stop-opacity:1;stop-color:#c7b2a0"
         offset="0.604311"
         id="stop88" />
      <stop
         style="stop-opacity:1;stop-color:#7d5d47"
         offset="1"
         id="stop89" />
    </linearGradient>
    <clipPath
       clipPathUnits="userSpaceOnUse"
       id="clipPath89">
      <path
         d="m 1518.22,512.39801 c 4.2,1.364 9.22,5.704 9.22,12.352 h -8.95 v 17.641 h 18.32 v -16.012 c 0,-12.348 -9.51,-18.867 -18.59,-20.359 z"
         id="path89" />
    </clipPath>
    <linearGradient
       x1="0"
       y1="0"
       x2="1"
       y2="0"
       gradientUnits="userSpaceOnUse"
       gradientTransform="matrix(0,-100.971,-100.971,0,1609.21,544.16)"
       spreadMethod="pad"
       id="linearGradient94">
      <stop
         style="stop-opacity:1;stop-color:#7d5d47"
         offset="0"
         id="stop90" />
      <stop
         style="stop-opacity:1;stop-color:#7d5d47"
         offset="0.0716559"
         id="stop91" />
      <stop
         style="stop-opacity:1;stop-color:#9f8672"
         offset="0.312927"
         id="stop92" />
      <stop
         style="stop-opacity:1;stop-color:#c7b2a0"
         offset="0.604311"
         id="stop93" />
      <stop
         style="stop-opacity:1;stop-color:#7d5d47"
         offset="1"
         id="stop94" />
    </linearGradient>
    <clipPath
       clipPathUnits="userSpaceOnUse"
       id="clipPath94">
      <path
         d="m 1569.38,475.35901 h 19.28 c 1.35,-11.679 7.99,-16.289 21.84,-16.289 10.05,0 18.86,3.52 18.86,12.489 0,9.492 -9.22,11.39 -24.01,14.781 -17.37,3.941 -33.26,8.551 -33.26,28.769 0,19.141 15.61,29.051 37.19,29.051 21.85,0 35.96,-10.73 37.45,-30.262 h -18.86 c -1.08,9.774 -8.68,14.653 -18.72,14.653 -10.59,0 -17.51,-4.481 -17.51,-11.403 0,-7.867 6.78,-10.168 21.17,-13.296 19.95,-4.34 36.23,-9.09 36.23,-29.993 0,-19.668 -15.88,-30.668 -37.73,-30.668 -26.32,0 -41.25,11.668 -41.93,32.168 z"
         id="path94" />
    </clipPath>
    <linearGradient
       x1="0"
       y1="0"
       x2="1"
       y2="0"
       gradientUnits="userSpaceOnUse"
       gradientTransform="matrix(0,-43.3105,-43.3105,0,584.785,391.8)"
       spreadMethod="pad"
       id="linearGradient99">
      <stop
         style="stop-opacity:1;stop-color:#7d5d47"
         offset="0"
         id="stop95" />
      <stop
         style="stop-opacity:1;stop-color:#7d5d47"
         offset="0.0716559"
         id="stop96" />
      <stop
         style="stop-opacity:1;stop-color:#9f8672"
         offset="0.312927"
         id="stop97" />
      <stop
         style="stop-opacity:1;stop-color:#c7b2a0"
         offset="0.604311"
         id="stop98" />
      <stop
         style="stop-opacity:1;stop-color:#7d5d47"
         offset="1"
         id="stop99" />
    </linearGradient>
    <clipPath
       clipPathUnits="userSpaceOnUse"
       id="clipPath99">
      <path
         d="m 557.94901,391.80101 h 5.696 l 6.843,-28.16 c 0.723,-2.911 1.629,-7.34 1.629,-7.34 h 0.129 c 0,0 1.027,4.609 1.817,7.449 l 7.812,28.051 h 5.879 l 7.566,-28.051 c 0.793,-2.898 1.758,-7.449 1.758,-7.449 h 0.117 c 0,0 1.035,4.668 1.703,7.34 l 7.20701,28.16 h 5.516 l -12.05801,-43.313 h -5.208 l -7.937,30.532 c -0.664,2.55 -1.574,6.601 -1.574,6.601 h -0.117 c 0,0 -0.911,-4.051 -1.641,-6.601 l -8.477,-30.532 h -5.461 z"
         id="path99" />
    </clipPath>
    <linearGradient
       x1="0"
       y1="0"
       x2="1"
       y2="0"
       gradientUnits="userSpaceOnUse"
       gradientTransform="matrix(0,-45.1904,-45.1904,0,648.731,392.77)"
       spreadMethod="pad"
       id="linearGradient104">
      <stop
         style="stop-opacity:1;stop-color:#7d5d47"
         offset="0"
         id="stop100" />
      <stop
         style="stop-opacity:1;stop-color:#7d5d47"
         offset="0.0716559"
         id="stop101" />
      <stop
         style="stop-opacity:1;stop-color:#9f8672"
         offset="0.312927"
         id="stop102" />
      <stop
         style="stop-opacity:1;stop-color:#c7b2a0"
         offset="0.604311"
         id="stop103" />
      <stop
         style="stop-opacity:1;stop-color:#7d5d47"
         offset="1"
         id="stop104" />
    </linearGradient>
    <clipPath
       clipPathUnits="userSpaceOnUse"
       id="clipPath104">
      <path
         d="m 664.36302,370.17201 c 0,10.187 -5.457,17.879 -15.633,17.879 -10.175,0 -15.625,-7.692 -15.625,-17.879 0,-10.172 5.45,-17.801 15.625,-17.801 10.176,0 15.633,7.629 15.633,17.801 z m -36.836,0 c 0,12.969 8.118,22.598 21.203,22.598 13.086,0 21.204,-9.629 21.204,-22.598 0,-12.961 -8.118,-22.59 -21.204,-22.59 -13.085,0 -21.203,9.629 -21.203,22.59 z"
         id="path104" />
    </clipPath>
    <linearGradient
       x1="0"
       y1="0"
       x2="1"
       y2="0"
       gradientUnits="userSpaceOnUse"
       gradientTransform="matrix(0,-43.3105,-43.3105,0,707.769,391.8)"
       spreadMethod="pad"
       id="linearGradient109">
      <stop
         style="stop-opacity:1;stop-color:#7d5d47"
         offset="0"
         id="stop105" />
      <stop
         style="stop-opacity:1;stop-color:#7d5d47"
         offset="0.0716559"
         id="stop106" />
      <stop
         style="stop-opacity:1;stop-color:#9f8672"
         offset="0.312927"
         id="stop107" />
      <stop
         style="stop-opacity:1;stop-color:#c7b2a0"
         offset="0.604311"
         id="stop108" />
      <stop
         style="stop-opacity:1;stop-color:#7d5d47"
         offset="1"
         id="stop109" />
    </linearGradient>
    <clipPath
       clipPathUnits="userSpaceOnUse"
       id="clipPath109">
      <path
         d="m 696.34802,371.21101 h 12.84 c 6.054,0 9.085,3.027 9.085,7.93 0,5.269 -2.421,7.937 -8.781,7.937 h -13.144 z m -5.45,20.59 h 20.223 c 7.641,0 12.785,-4.781 12.785,-11.871 0,-5.27 -2.297,-9.032 -7.508,-10.719 v -0.18 c 4.422,-1.582 5.821,-4.609 6.239,-11.031 0.488,-6.969 1.211,-8.719 2.004,-9.27 v -0.242 h -5.879 c -0.91,0.793 -1.094,2.422 -1.574,9.692 -0.43,6.359 -2.969,8.609 -8.79,8.609 h -12.05 v -18.301 h -5.45 z"
         id="path109" />
    </clipPath>
    <linearGradient
       x1="0"
       y1="0"
       x2="1"
       y2="0"
       gradientUnits="userSpaceOnUse"
       gradientTransform="matrix(0,-43.3105,-43.3105,0,759.072,391.8)"
       spreadMethod="pad"
       id="linearGradient114">
      <stop
         style="stop-opacity:1;stop-color:#7d5d47"
         offset="0"
         id="stop110" />
      <stop
         style="stop-opacity:1;stop-color:#7d5d47"
         offset="0.0716559"
         id="stop111" />
      <stop
         style="stop-opacity:1;stop-color:#9f8672"
         offset="0.312927"
         id="stop112" />
      <stop
         style="stop-opacity:1;stop-color:#c7b2a0"
         offset="0.604311"
         id="stop113" />
      <stop
         style="stop-opacity:1;stop-color:#7d5d47"
         offset="1"
         id="stop114" />
    </linearGradient>
    <clipPath
       clipPathUnits="userSpaceOnUse"
       id="clipPath114">
      <path
         d="m 744.98802,391.80101 h 5.45 v -38.281 h 22.714 v -5.032 h -28.164 z"
         id="path114" />
    </clipPath>
    <linearGradient
       x1="0"
       y1="0"
       x2="1"
       y2="0"
       gradientUnits="userSpaceOnUse"
       gradientTransform="matrix(0,-43.3105,-43.3105,0,810.513,391.8)"
       spreadMethod="pad"
       id="linearGradient119">
      <stop
         style="stop-opacity:1;stop-color:#7d5d47"
         offset="0"
         id="stop115" />
      <stop
         style="stop-opacity:1;stop-color:#7d5d47"
         offset="0.0716559"
         id="stop116" />
      <stop
         style="stop-opacity:1;stop-color:#9f8672"
         offset="0.312927"
         id="stop117" />
      <stop
         style="stop-opacity:1;stop-color:#c7b2a0"
         offset="0.604311"
         id="stop118" />
      <stop
         style="stop-opacity:1;stop-color:#7d5d47"
         offset="1"
         id="stop119" />
    </linearGradient>
    <clipPath
       clipPathUnits="userSpaceOnUse"
       id="clipPath119">
      <path
         d="m 808.17602,353.28101 c 10.183,0 14.234,6.539 14.234,16.707 0,10.184 -3.633,17.09 -13.805,17.09 h -10.121 v -33.797 z m -15.141,38.52 h 15.742 c 13.032,0 19.211,-8.84 19.211,-21.813 0,-12.957 -6.601,-21.5 -19.629,-21.5 h -15.324 z"
         id="path119" />
    </clipPath>
    <linearGradient
       x1="0"
       y1="0"
       x2="1"
       y2="0"
       gradientUnits="userSpaceOnUse"
       gradientTransform="matrix(0,-45.1318,-45.1318,0,890.689,392.77)"
       spreadMethod="pad"
       id="linearGradient124">
      <stop
         style="stop-opacity:1;stop-color:#7d5d47"
         offset="0"
         id="stop120" />
      <stop
         style="stop-opacity:1;stop-color:#7d5d47"
         offset="0.0716559"
         id="stop121" />
      <stop
         style="stop-opacity:1;stop-color:#9f8672"
         offset="0.312927"
         id="stop122" />
      <stop
         style="stop-opacity:1;stop-color:#c7b2a0"
         offset="0.604311"
         id="stop123" />
      <stop
         style="stop-opacity:1;stop-color:#7d5d47"
         offset="1"
         id="stop124" />
    </linearGradient>
    <clipPath
       clipPathUnits="userSpaceOnUse"
       id="clipPath124">
      <path
         d="m 871.45302,370.17201 c 0,12.726 7.641,22.598 20.539,22.598 10.117,0 16.231,-5.809 17.383,-13.809 h -5.332 c -1.023,5.391 -5.32,9.09 -12.168,9.09 -9.512,0 -14.844,-7.692 -14.844,-17.879 0,-10.602 5.879,-17.742 14.903,-17.742 8.171,0 12.05,5.57 12.597,11.929 h 5.391 c -0.059,-4.3 -2.117,-9.148 -5.203,-12.168 -3.039,-2.972 -7.453,-4.55 -12.973,-4.55 -12.293,0 -20.293,9.39 -20.293,22.531 z"
         id="path124" />
    </clipPath>
    <linearGradient
       x1="0"
       y1="0"
       x2="1"
       y2="0"
       gradientUnits="userSpaceOnUse"
       gradientTransform="matrix(0,-43.3105,-43.3105,0,944.6,391.8)"
       spreadMethod="pad"
       id="linearGradient129">
      <stop
         style="stop-opacity:1;stop-color:#7d5d47"
         offset="0"
         id="stop125" />
      <stop
         style="stop-opacity:1;stop-color:#7d5d47"
         offset="0.0716559"
         id="stop126" />
      <stop
         style="stop-opacity:1;stop-color:#9f8672"
         offset="0.312927"
         id="stop127" />
      <stop
         style="stop-opacity:1;stop-color:#c7b2a0"
         offset="0.604311"
         id="stop128" />
      <stop
         style="stop-opacity:1;stop-color:#7d5d47"
         offset="1"
         id="stop129" />
    </linearGradient>
    <clipPath
       clipPathUnits="userSpaceOnUse"
       id="clipPath129">
      <path
         d="m 930.52002,391.80101 h 5.449 v -38.281 h 22.715 v -5.032 h -28.164 z"
         id="path129" />
    </clipPath>
    <linearGradient
       x1="0"
       y1="0"
       x2="1"
       y2="0"
       gradientUnits="userSpaceOnUse"
       gradientTransform="matrix(0,-43.3105,-43.3105,0,994.131,391.8)"
       spreadMethod="pad"
       id="linearGradient134">
      <stop
         style="stop-opacity:1;stop-color:#7d5d47"
         offset="0"
         id="stop130" />
      <stop
         style="stop-opacity:1;stop-color:#7d5d47"
         offset="0.0716559"
         id="stop131" />
      <stop
         style="stop-opacity:1;stop-color:#9f8672"
         offset="0.312927"
         id="stop132" />
      <stop
         style="stop-opacity:1;stop-color:#c7b2a0"
         offset="0.604311"
         id="stop133" />
      <stop
         style="stop-opacity:1;stop-color:#7d5d47"
         offset="1"
         id="stop134" />
    </linearGradient>
    <clipPath
       clipPathUnits="userSpaceOnUse"
       id="clipPath134">
      <path
         d="M 986.92602,366.12101 H 1001.09 l -4.95698,14.539 c -0.852,2.422 -1.945,6.121 -1.945,6.121 h -0.118 c 0,0 -1.148,-3.64 -2,-6.121 z m 4.109,25.68 h 6.121 l 15.99398,-43.313 h -5.93 l -4.61,13.211 h -17.26598 l -4.66,-13.211 h -5.579 z"
         id="path134" />
    </clipPath>
    <linearGradient
       x1="0"
       y1="0"
       x2="1"
       y2="0"
       gradientUnits="userSpaceOnUse"
       gradientTransform="matrix(0,-45.0098,-45.0098,0,1046.16,392.65)"
       spreadMethod="pad"
       id="linearGradient139">
      <stop
         style="stop-opacity:1;stop-color:#7d5d47"
         offset="0"
         id="stop135" />
      <stop
         style="stop-opacity:1;stop-color:#7d5d47"
         offset="0.0716559"
         id="stop136" />
      <stop
         style="stop-opacity:1;stop-color:#9f8672"
         offset="0.312927"
         id="stop137" />
      <stop
         style="stop-opacity:1;stop-color:#c7b2a0"
         offset="0.604311"
         id="stop138" />
      <stop
         style="stop-opacity:1;stop-color:#7d5d47"
         offset="1"
         id="stop139" />
    </linearGradient>
    <clipPath
       clipPathUnits="userSpaceOnUse"
       id="clipPath139">
      <path
         d="m 1028.96,363.14801 h 5.33 c 0.73,-7.328 5.21,-11.136 13.39,-11.136 5.99,0 10.3,2.718 10.3,8.109 0,5.938 -5.22,7.328 -12.97,9.027 -7.63,1.692 -14.17,3.883 -14.17,12.051 0,7.153 5.94,11.449 14.72,11.449 10.84,0 15.33,-5.507 16.41,-13.507 h -5.14 c -0.79,6.179 -4.79,9.269 -11.15,9.269 -5.88,0 -9.75,-2.48 -9.75,-6.969 0,-4.902 4.84,-6.359 11.33,-7.632 8.41,-1.7 16.11,-3.75 16.11,-13.508 0,-8.11 -6.6,-12.66 -15.94,-12.66 -12.17,0 -17.99,6.789 -18.47,15.507 z"
         id="path139" />
    </clipPath>
    <linearGradient
       x1="0"
       y1="0"
       x2="1"
       y2="0"
       gradientUnits="userSpaceOnUse"
       gradientTransform="matrix(0,-45.0098,-45.0098,0,1098.56,392.65)"
       spreadMethod="pad"
       id="linearGradient144">
      <stop
         style="stop-opacity:1;stop-color:#7d5d47"
         offset="0"
         id="stop140" />
      <stop
         style="stop-opacity:1;stop-color:#7d5d47"
         offset="0.0716559"
         id="stop141" />
      <stop
         style="stop-opacity:1;stop-color:#9f8672"
         offset="0.312927"
         id="stop142" />
      <stop
         style="stop-opacity:1;stop-color:#c7b2a0"
         offset="0.604311"
         id="stop143" />
      <stop
         style="stop-opacity:1;stop-color:#7d5d47"
         offset="1"
         id="stop144" />
    </linearGradient>
    <clipPath
       clipPathUnits="userSpaceOnUse"
       id="clipPath144">
      <path
         d="m 1081.36,363.14801 h 5.33 c 0.73,-7.328 5.21,-11.136 13.39,-11.136 5.99,0 10.3,2.718 10.3,8.109 0,5.938 -5.21,7.328 -12.97,9.027 -7.62,1.692 -14.17,3.883 -14.17,12.051 0,7.153 5.94,11.449 14.72,11.449 10.84,0 15.33,-5.507 16.41,-13.507 h -5.14 c -0.79,6.179 -4.79,9.269 -11.14,9.269 -5.88,0 -9.76,-2.48 -9.76,-6.969 0,-4.902 4.84,-6.359 11.33,-7.632 8.42,-1.7 16.11,-3.75 16.11,-13.508 0,-8.11 -6.6,-12.66 -15.94,-12.66 -12.16,0 -17.98,6.789 -18.47,15.507 z"
         id="path144" />
    </clipPath>
    <linearGradient
       x1="0"
       y1="0"
       x2="1"
       y2="0"
       gradientUnits="userSpaceOnUse"
       gradientTransform="matrix(0,-43.3105,-43.3105,0,1176.21,391.8)"
       spreadMethod="pad"
       id="linearGradient149">
      <stop
         style="stop-opacity:1;stop-color:#7d5d47"
         offset="0"
         id="stop145" />
      <stop
         style="stop-opacity:1;stop-color:#7d5d47"
         offset="0.0716559"
         id="stop146" />
      <stop
         style="stop-opacity:1;stop-color:#9f8672"
         offset="0.312927"
         id="stop147" />
      <stop
         style="stop-opacity:1;stop-color:#c7b2a0"
         offset="0.604311"
         id="stop148" />
      <stop
         style="stop-opacity:1;stop-color:#7d5d47"
         offset="1"
         id="stop149" />
    </linearGradient>
    <clipPath
       clipPathUnits="userSpaceOnUse"
       id="clipPath149">
      <path
         d="m 1169,366.12101 h 14.17 l -4.96,14.539 c -0.85,2.422 -1.94,6.121 -1.94,6.121 h -0.12 c 0,0 -1.15,-3.64 -2,-6.121 z m 4.12,25.68 h 6.12 l 15.99,-43.313 h -5.93 l -4.61,13.211 h -17.27 l -4.66,-13.211 h -5.57 z"
         id="path149" />
    </clipPath>
    <linearGradient
       x1="0"
       y1="0"
       x2="1"
       y2="0"
       gradientUnits="userSpaceOnUse"
       gradientTransform="matrix(0,-43.3105,-43.3105,0,1230.03,391.8)"
       spreadMethod="pad"
       id="linearGradient154">
      <stop
         style="stop-opacity:1;stop-color:#7d5d47"
         offset="0"
         id="stop150" />
      <stop
         style="stop-opacity:1;stop-color:#7d5d47"
         offset="0.0716559"
         id="stop151" />
      <stop
         style="stop-opacity:1;stop-color:#9f8672"
         offset="0.312927"
         id="stop152" />
      <stop
         style="stop-opacity:1;stop-color:#c7b2a0"
         offset="0.604311"
         id="stop153" />
      <stop
         style="stop-opacity:1;stop-color:#7d5d47"
         offset="1"
         id="stop154" />
    </linearGradient>
    <clipPath
       clipPathUnits="userSpaceOnUse"
       id="clipPath154">
      <path
         d="m 1214.37,391.80101 h 30.59 v -4.781 h -25.14 v -13.692 h 22.84 v -4.609 h -22.84 v -15.199 h 25.87 v -5.032 h -31.32 z"
         id="path154" />
    </clipPath>
    <linearGradient
       x1="0"
       y1="0"
       x2="1"
       y2="0"
       gradientUnits="userSpaceOnUse"
       gradientTransform="matrix(0,-45.0098,-45.0098,0,1280.4,392.65)"
       spreadMethod="pad"
       id="linearGradient159">
      <stop
         style="stop-opacity:1;stop-color:#7d5d47"
         offset="0"
         id="stop155" />
      <stop
         style="stop-opacity:1;stop-color:#7d5d47"
         offset="0.0716559"
         id="stop156" />
      <stop
         style="stop-opacity:1;stop-color:#9f8672"
         offset="0.312927"
         id="stop157" />
      <stop
         style="stop-opacity:1;stop-color:#c7b2a0"
         offset="0.604311"
         id="stop158" />
      <stop
         style="stop-opacity:1;stop-color:#7d5d47"
         offset="1"
         id="stop159" />
    </linearGradient>
    <clipPath
       clipPathUnits="userSpaceOnUse"
       id="clipPath159">
      <path
         d="m 1263.19,363.14801 h 5.34 c 0.73,-7.328 5.21,-11.136 13.38,-11.136 6,0 10.31,2.718 10.31,8.109 0,5.938 -5.22,7.328 -12.97,9.027 -7.63,1.692 -14.17,3.883 -14.17,12.051 0,7.153 5.94,11.449 14.71,11.449 10.84,0 15.34,-5.507 16.42,-13.507 h -5.15 c -0.79,6.179 -4.78,9.269 -11.14,9.269 -5.88,0 -9.75,-2.48 -9.75,-6.969 0,-4.902 4.84,-6.359 11.32,-7.632 8.42,-1.7 16.12,-3.75 16.12,-13.508 0,-8.11 -6.6,-12.66 -15.94,-12.66 -12.17,0 -17.99,6.789 -18.48,15.507 z"
         id="path159" />
    </clipPath>
    <linearGradient
       x1="0"
       y1="0"
       x2="1"
       y2="0"
       gradientUnits="userSpaceOnUse"
       gradientTransform="matrix(0,-43.3105,-43.3105,0,1330.62,391.8)"
       spreadMethod="pad"
       id="linearGradient164">
      <stop
         style="stop-opacity:1;stop-color:#7d5d47"
         offset="0"
         id="stop160" />
      <stop
         style="stop-opacity:1;stop-color:#7d5d47"
         offset="0.0716559"
         id="stop161" />
      <stop
         style="stop-opacity:1;stop-color:#9f8672"
         offset="0.312927"
         id="stop162" />
      <stop
         style="stop-opacity:1;stop-color:#c7b2a0"
         offset="0.604311"
         id="stop163" />
      <stop
         style="stop-opacity:1;stop-color:#7d5d47"
         offset="1"
         id="stop164" />
    </linearGradient>
    <clipPath
       clipPathUnits="userSpaceOnUse"
       id="clipPath164">
      <path
         d="m 1313.48,391.80101 h 34.28 v -4.781 h -14.41 v -38.532 h -5.45 v 38.532 h -14.42 z"
         id="path164" />
    </clipPath>
    <linearGradient
       x1="0"
       y1="0"
       x2="1"
       y2="0"
       gradientUnits="userSpaceOnUse"
       gradientTransform="matrix(0,-43.3105,-43.3105,0,1384.67,391.8)"
       spreadMethod="pad"
       id="linearGradient169">
      <stop
         style="stop-opacity:1;stop-color:#7d5d47"
         offset="0"
         id="stop165" />
      <stop
         style="stop-opacity:1;stop-color:#7d5d47"
         offset="0.0716559"
         id="stop166" />
      <stop
         style="stop-opacity:1;stop-color:#9f8672"
         offset="0.312927"
         id="stop167" />
      <stop
         style="stop-opacity:1;stop-color:#c7b2a0"
         offset="0.604311"
         id="stop168" />
      <stop
         style="stop-opacity:1;stop-color:#7d5d47"
         offset="1"
         id="stop169" />
    </linearGradient>
    <clipPath
       clipPathUnits="userSpaceOnUse"
       id="clipPath169">
      <path
         d="m 1367.65,391.80101 h 5.45 v -18.41 h 23.13 v 18.41 h 5.46 v -43.313 h -5.46 v 20.473 h -23.13 v -20.473 h -5.45 z"
         id="path169" />
    </clipPath>
    <linearGradient
       x1="0"
       y1="0"
       x2="1"
       y2="0"
       gradientUnits="userSpaceOnUse"
       gradientTransform="matrix(0,-43.3105,-43.3105,0,1439.95,391.8)"
       spreadMethod="pad"
       id="linearGradient174">
      <stop
         style="stop-opacity:1;stop-color:#7d5d47"
         offset="0"
         id="stop170" />
      <stop
         style="stop-opacity:1;stop-color:#7d5d47"
         offset="0.0716559"
         id="stop171" />
      <stop
         style="stop-opacity:1;stop-color:#9f8672"
         offset="0.312927"
         id="stop172" />
      <stop
         style="stop-opacity:1;stop-color:#c7b2a0"
         offset="0.604311"
         id="stop173" />
      <stop
         style="stop-opacity:1;stop-color:#7d5d47"
         offset="1"
         id="stop174" />
    </linearGradient>
    <clipPath
       clipPathUnits="userSpaceOnUse"
       id="clipPath174">
      <path
         d="m 1424.29,391.80101 h 30.58 v -4.781 h -25.13 v -13.692 h 22.83 v -4.609 h -22.83 v -15.199 h 25.87 v -5.032 h -31.32 z"
         id="path174" />
    </clipPath>
    <linearGradient
       x1="0"
       y1="0"
       x2="1"
       y2="0"
       gradientUnits="userSpaceOnUse"
       gradientTransform="matrix(0,-43.3105,-43.3105,0,1490.85,391.8)"
       spreadMethod="pad"
       id="linearGradient179">
      <stop
         style="stop-opacity:1;stop-color:#7d5d47"
         offset="0"
         id="stop175" />
      <stop
         style="stop-opacity:1;stop-color:#7d5d47"
         offset="0.0716559"
         id="stop176" />
      <stop
         style="stop-opacity:1;stop-color:#9f8672"
         offset="0.312927"
         id="stop177" />
      <stop
         style="stop-opacity:1;stop-color:#c7b2a0"
         offset="0.604311"
         id="stop178" />
      <stop
         style="stop-opacity:1;stop-color:#7d5d47"
         offset="1"
         id="stop179" />
    </linearGradient>
    <clipPath
       clipPathUnits="userSpaceOnUse"
       id="clipPath179">
      <path
         d="M 1473.71,391.80101 H 1508 v -4.781 h -14.42 v -38.532 h -5.45 v 38.532 h -14.42 z"
         id="path179" />
    </clipPath>
    <linearGradient
       x1="0"
       y1="0"
       x2="1"
       y2="0"
       gradientUnits="userSpaceOnUse"
       gradientTransform="matrix(0,-43.3105,-43.3105,0,1530.72,391.8)"
       spreadMethod="pad"
       id="linearGradient184">
      <stop
         style="stop-opacity:1;stop-color:#7d5d47"
         offset="0"
         id="stop180" />
      <stop
         style="stop-opacity:1;stop-color:#7d5d47"
         offset="0.0716559"
         id="stop181" />
      <stop
         style="stop-opacity:1;stop-color:#9f8672"
         offset="0.312927"
         id="stop182" />
      <stop
         style="stop-opacity:1;stop-color:#c7b2a0"
         offset="0.604311"
         id="stop183" />
      <stop
         style="stop-opacity:1;stop-color:#7d5d47"
         offset="1"
         id="stop184" />
    </linearGradient>
    <clipPath
       clipPathUnits="userSpaceOnUse"
       id="clipPath184">
      <path
         d="m 1528,391.80101 h 5.45 v -43.313 H 1528 Z"
         id="path184" />
    </clipPath>
    <linearGradient
       x1="0"
       y1="0"
       x2="1"
       y2="0"
       gradientUnits="userSpaceOnUse"
       gradientTransform="matrix(0,-45.1318,-45.1318,0,1573.79,392.77)"
       spreadMethod="pad"
       id="linearGradient189">
      <stop
         style="stop-opacity:1;stop-color:#7d5d47"
         offset="0"
         id="stop185" />
      <stop
         style="stop-opacity:1;stop-color:#7d5d47"
         offset="0.0716559"
         id="stop186" />
      <stop
         style="stop-opacity:1;stop-color:#9f8672"
         offset="0.312927"
         id="stop187" />
      <stop
         style="stop-opacity:1;stop-color:#c7b2a0"
         offset="0.604311"
         id="stop188" />
      <stop
         style="stop-opacity:1;stop-color:#7d5d47"
         offset="1"
         id="stop189" />
    </linearGradient>
    <clipPath
       clipPathUnits="userSpaceOnUse"
       id="clipPath189">
      <path
         d="m 1554.56,370.17201 c 0,12.726 7.64,22.598 20.54,22.598 10.11,0 16.23,-5.809 17.38,-13.809 h -5.33 c -1.03,5.391 -5.32,9.09 -12.17,9.09 -9.51,0 -14.84,-7.692 -14.84,-17.879 0,-10.602 5.88,-17.742 14.9,-17.742 8.17,0 12.05,5.57 12.6,11.929 h 5.39 c -0.06,-4.3 -2.12,-9.148 -5.21,-12.168 -3.03,-2.972 -7.45,-4.55 -12.97,-4.55 -12.29,0 -20.29,9.39 -20.29,22.531 z"
         id="path189" />
    </clipPath>
    <linearGradient
       x1="0"
       y1="0"
       x2="1"
       y2="0"
       gradientUnits="userSpaceOnUse"
       gradientTransform="matrix(0,-45.0098,-45.0098,0,1628.1,392.65)"
       spreadMethod="pad"
       id="linearGradient194">
      <stop
         style="stop-opacity:1;stop-color:#7d5d47"
         offset="0"
         id="stop190" />
      <stop
         style="stop-opacity:1;stop-color:#7d5d47"
         offset="0.0716559"
         id="stop191" />
      <stop
         style="stop-opacity:1;stop-color:#9f8672"
         offset="0.312927"
         id="stop192" />
      <stop
         style="stop-opacity:1;stop-color:#c7b2a0"
         offset="0.604311"
         id="stop193" />
      <stop
         style="stop-opacity:1;stop-color:#7d5d47"
         offset="1"
         id="stop194" />
    </linearGradient>
    <clipPath
       clipPathUnits="userSpaceOnUse"
       id="clipPath194">
      <path
         d="m 1610.89,363.14801 h 5.33 c 0.73,-7.328 5.22,-11.136 13.39,-11.136 6,0 10.3,2.718 10.3,8.109 0,5.938 -5.21,7.328 -12.97,9.027 -7.62,1.692 -14.17,3.883 -14.17,12.051 0,7.153 5.94,11.449 14.72,11.449 10.84,0 15.33,-5.507 16.42,-13.507 h -5.15 c -0.79,6.179 -4.79,9.269 -11.14,9.269 -5.88,0 -9.76,-2.48 -9.76,-6.969 0,-4.902 4.85,-6.359 11.33,-7.632 8.42,-1.7 16.11,-3.75 16.11,-13.508 0,-8.11 -6.6,-12.66 -15.93,-12.66 -12.17,0 -17.99,6.789 -18.48,15.507 z"
         id="path194" />
    </clipPath>
    <linearGradient
       x1="0"
       y1="0"
       x2="1"
       y2="0"
       gradientUnits="userSpaceOnUse"
       gradientTransform="matrix(0,-2.22565,-2.22565,0,1102.26,410.31)"
       spreadMethod="pad"
       id="linearGradient199">
      <stop
         style="stop-opacity:1;stop-color:#7d5d47"
         offset="0"
         id="stop195" />
      <stop
         style="stop-opacity:1;stop-color:#7d5d47"
         offset="0.0716559"
         id="stop196" />
      <stop
         style="stop-opacity:1;stop-color:#9f8672"
         offset="0.312927"
         id="stop197" />
      <stop
         style="stop-opacity:1;stop-color:#c7b2a0"
         offset="0.604311"
         id="stop198" />
      <stop
         style="stop-opacity:1;stop-color:#7d5d47"
         offset="1"
         id="stop199" />
    </linearGradient>
    <clipPath
       clipPathUnits="userSpaceOnUse"
       id="clipPath199">
      <path
         d="M 1649.81,408.08201 H 554.71901 v 2.227 H 1649.81 Z"
         id="path199" />
    </clipPath>
    <linearGradient
       x1="0"
       y1="0"
       x2="1"
       y2="0"
       gradientUnits="userSpaceOnUse"
       gradientTransform="matrix(0,-2.22565,-2.22565,0,1102.26,331.38)"
       spreadMethod="pad"
       id="linearGradient204">
      <stop
         style="stop-opacity:1;stop-color:#7d5d47"
         offset="0"
         id="stop200" />
      <stop
         style="stop-opacity:1;stop-color:#7d5d47"
         offset="0.0716559"
         id="stop201" />
      <stop
         style="stop-opacity:1;stop-color:#9f8672"
         offset="0.312927"
         id="stop202" />
      <stop
         style="stop-opacity:1;stop-color:#c7b2a0"
         offset="0.604311"
         id="stop203" />
      <stop
         style="stop-opacity:1;stop-color:#7d5d47"
         offset="1"
         id="stop204" />
    </linearGradient>
    <clipPath
       clipPathUnits="userSpaceOnUse"
       id="clipPath204">
      <path
         d="M 1649.81,329.14801 H 554.71901 v 2.231 H 1649.81 Z"
         id="path204" />
    </clipPath>
    <linearGradient
       x1="0"
       y1="0"
       x2="1"
       y2="0"
       gradientUnits="userSpaceOnUse"
       gradientTransform="matrix(0,-395.346,-395.346,0,324.181,636.46)"
       spreadMethod="pad"
       id="linearGradient209">
      <stop
         style="stop-opacity:1;stop-color:#7d5d47"
         offset="0"
         id="stop205" />
      <stop
         style="stop-opacity:1;stop-color:#7d5d47"
         offset="0.0716559"
         id="stop206" />
      <stop
         style="stop-opacity:1;stop-color:#9f8672"
         offset="0.312927"
         id="stop207" />
      <stop
         style="stop-opacity:1;stop-color:#c7b2a0"
         offset="0.604311"
         id="stop208" />
      <stop
         style="stop-opacity:1;stop-color:#7d5d47"
         offset="1"
         id="stop209" />
    </linearGradient>
    <clipPath
       clipPathUnits="userSpaceOnUse"
       id="clipPath209">
      <path
         d="m 281.28101,288.73001 c -26.035,-20.058 -63.289,-15.289 -83.46801,10.622 -20.067,26.039 -15.407,63.41 10.62501,83.589 18.273,14.098 42.871,16.36 78.933,6.93 l 19.824,-5.851 c 1.789,-38.93 0.836,-74.629 -25.914,-95.29 z m 197.157,227.84 c -24.836,32.11 -66.497,43.942 -103.153,32.489 -0.015,-0.008 -0.023,-0.02 -0.023,-0.039 v -37.938 c 25.078,13.488 57.199,7.277 75.23,-16.121 20.18,-25.922 15.285,-63.41 -10.625,-83.359 -22.332,-17.43 -57.441,-13.012 -78.937,-7.883 l -19.942,5.972 c -0.238,6.809 -0.476,13.379 -0.476,19.829 v 206.10901 c 0,0.461 -0.371,0.832 -0.832,0.832 h -33.207 c -0.461,0 -0.832,-0.371 -0.832,-0.832 V 420.32001 l -22.45,6.809 c -29.253,5.973 -65.675,7.402 -96.36701,-16.359 -41.195,-32 -48.844,-91.59 -16.836,-132.911 32.00001,-41.32 91.59001,-48.961 132.78501,-16.961 36.782,28.422 40.844,70.582 39.649,112.614 l 22.57,-6.571 c 30.809,-5.492 67.946,-5.371 96.485,16.719 41.32,32 48.843,91.59 16.961,132.91 z"
         id="path209" />
    </clipPath>
    <linearGradient
       x1="0"
       y1="0"
       x2="1"
       y2="0"
       gradientUnits="userSpaceOnUse"
       gradientTransform="matrix(0,-81.7278,-81.7278,0,401.715,341.23)"
       spreadMethod="pad"
       id="linearGradient214">
      <stop
         style="stop-opacity:1;stop-color:#7d5d47"
         offset="0"
         id="stop210" />
      <stop
         style="stop-opacity:1;stop-color:#7d5d47"
         offset="0.0716559"
         id="stop211" />
      <stop
         style="stop-opacity:1;stop-color:#9f8672"
         offset="0.312927"
         id="stop212" />
      <stop
         style="stop-opacity:1;stop-color:#c7b2a0"
         offset="0.604311"
         id="stop213" />
      <stop
         style="stop-opacity:1;stop-color:#7d5d47"
         offset="1"
         id="stop214" />
    </linearGradient>
    <clipPath
       clipPathUnits="userSpaceOnUse"
       id="clipPath214">
      <path
         d="m 401.71501,341.23001 6.172,-26.832 c 0.898,-3.91 3.953,-6.957 7.867,-7.859 l 26.824,-6.168 -26.824,-6.172 c -3.914,-0.898 -6.969,-3.961 -7.867,-7.867 l -6.172,-26.832 -6.168,26.832 c -0.902,3.906 -3.957,6.969 -7.867,7.867 l -26.828,6.172 26.828,6.168 c 3.91,0.902 6.965,3.949 7.867,7.859 z"
         id="path214" />
    </clipPath>
  </defs>
  <sodipodi:namedview
     id="namedview1"
     pagecolor="#ffffff"
     bordercolor="#000000"
     borderopacity="0.25"
     inkscape:showpageshadow="2"
     inkscape:pageopacity="0.0"
     inkscape:pagecheckerboard="0"
     inkscape:deskcolor="#d1d1d1">
    <inkscape:page
       x="0"
       y="0"
       inkscape:label="1"
       id="page1"
       width="240"
       height="336"
       margin="0"
       bleed="0" />
  </sodipodi:namedview>
  <g
     id="g1"
     inkscape:groupmode="layer"
     inkscape:label="1">
    <g
       id="group-R5">
      
      
      
      <path
         id="path5"
         d="m 589.914,2103.44 c 18.457,0 25.649,11.27 25.649,30.53 0,19.28 -8.411,32.71 -25.102,32.71 h -15.746 v -63.24 z m -34.871,80.07 h 37.859 c 25.918,0 42.61,-20.9 42.61,-49.54 0,-15.74 -5.293,-29.58 -15.473,-38.13 -7.191,-5.97 -16.555,-9.36 -28.769,-9.36 h -36.227 v 97.03"
         style="fill:#ffffff;fill-opacity:1;fill-rule:nonzero;stroke:none"
         transform="matrix(0.13333333,0,0,-0.13333333,0,336)" />
      <path
         id="path6"
         d="m 693.074,2140.62 h 20.903 c 10.718,0 16.011,5.57 16.011,13.31 0,7.86 -5.023,13.7 -15.472,13.7 h -21.442 z m -19.672,42.89 h 44.504 c 18.727,0 31.219,-10.86 31.219,-27.01 0,-11.4 -5.293,-20.09 -17.777,-23.48 v -0.41 c 8.953,-2.57 13.57,-7.73 14.789,-19.54 1.355,-13.7 0.816,-24.15 4.207,-25.64 v -0.95 h -18.867 c -2.442,1.08 -2.711,11.94 -3.532,22.39 -0.804,10.58 -6.777,16.56 -18.996,16.56 h -15.875 v -38.95 h -19.672 v 97.03"
         style="fill:#ffffff;fill-opacity:1;fill-rule:nonzero;stroke:none"
         transform="matrix(0.13333333,0,0,-0.13333333,0,336)" />
      <path
         id="path7"
         d="m 774.266,2106.15 h 0.14 c 5.434,0 9.836,-4.4 9.836,-9.84 v 0 c 0,-5.43 -4.402,-9.83 -9.836,-9.83 h -0.14 c -5.43,0 -9.836,4.4 -9.836,9.83 v 0 c 0,5.44 4.406,9.84 9.836,9.84"
         style="fill:#ffffff;fill-opacity:1;fill-rule:nonzero;stroke:none"
         transform="matrix(0.13333333,0,0,-0.13333333,0,336)" />
      <path
         id="path8"
         d="m 859.625,2102.76 h 22.668 c 9.492,0 15.195,5.29 15.195,13.16 0,9.24 -6.789,13.98 -15.746,13.98 h -22.117 z m 21.309,41.66 c 8.546,0 14.379,4.07 14.379,11.68 0,7.19 -5.293,11.4 -13.977,11.4 h -21.711 v -23.08 z m -40.985,39.09 h 43.43 c 10.441,0 18.445,-2.58 23.473,-7.06 5.293,-4.75 7.738,-10.59 7.738,-18.19 0,-9.9 -6.113,-16.28 -15.207,-19.4 v -0.41 c 10.726,-3.12 18.051,-12.07 18.051,-24.01 0,-9.1 -2.844,-15.34 -8.547,-20.23 -5.567,-4.88 -14.114,-7.73 -24.434,-7.73 h -44.504 v 97.03"
         style="fill:#ffffff;fill-opacity:1;fill-rule:nonzero;stroke:none"
         transform="matrix(0.13333333,0,0,-0.13333333,0,336)" />
      <path
         id="path9"
         d="m 956.137,2183.51 h 19.676 v -38 h 38.127 v 38 h 19.68 v -97.03 h -19.68 v 42.75 h -38.127 v -42.75 h -19.676 v 97.03"
         style="fill:#ffffff;fill-opacity:1;fill-rule:nonzero;stroke:none"
         transform="matrix(0.13333333,0,0,-0.13333333,0,336)" />
      <path
         id="path10"
         d="m 1099.6,2122.16 h 25.65 l -8.68,27.97 c -1.63,5.15 -3.94,14.92 -3.94,14.92 h -0.27 c 0,0 -2.44,-9.77 -4.07,-14.92 z m 2.86,61.35 h 20.35 l 34.2,-97.03 h -20.49 l -6.52,20.63 h -35.01 l -6.38,-20.63 h -19.95 l 33.8,97.03"
         style="fill:#ffffff;fill-opacity:1;fill-rule:nonzero;stroke:none"
         transform="matrix(0.13333333,0,0,-0.13333333,0,336)" />
      <path
         id="path11"
         d="m 1254.6,2099.5 h -0.27 c -6.65,-11.12 -15.74,-15.06 -27.28,-15.06 -14.66,0 -26.06,5.3 -34.06,14.11 -8.01,8.96 -12.63,21.45 -12.63,36.1 0,16.15 5.71,30.26 15.89,39.63 7.86,7.2 18.18,11.13 31.21,11.13 24.43,0 38.4,-13.44 41.52,-32.43 h -19.27 c -2.17,9.36 -9.36,16.14 -21.84,16.14 -18.33,0 -27.42,-15.19 -27.42,-34.47 0,-19.81 10.45,-34.33 27.15,-34.33 15.05,0 24.97,11.27 24.97,21.98 v 0.54 h -23.35 v 15.21 h 40.85 v -51.57 h -14.79 l -0.68,13.02"
         style="fill:#ffffff;fill-opacity:1;fill-rule:nonzero;stroke:none"
         transform="matrix(0.13333333,0,0,-0.13333333,0,336)" />
      <path
         id="path12"
         d="m 1334.83,2122.16 h 25.64 l -8.68,27.97 c -1.63,5.15 -3.94,14.92 -3.94,14.92 h -0.27 c 0,0 -2.44,-9.77 -4.07,-14.92 z m 2.85,61.35 h 20.35 l 34.2,-97.03 h -20.49 l -6.52,20.63 h -35.01 l -6.38,-20.63 h -19.94 l 33.79,97.03"
         style="fill:#ffffff;fill-opacity:1;fill-rule:nonzero;stroke:none"
         transform="matrix(0.13333333,0,0,-0.13333333,0,336)" />
      <path
         id="path13"
         d="m 1404.87,2183.51 h 78.03 v -16.56 h -29.17 v -80.47 h -19.68 v 80.47 h -29.18 v 16.56"
         style="fill:#ffffff;fill-opacity:1;fill-rule:nonzero;stroke:none"
         transform="matrix(0.13333333,0,0,-0.13333333,0,336)" />
      <path
         id="path14"
         d="m 1518.22,2153.52 c 4.2,1.35 9.22,5.7 9.22,12.34 h -8.95 v 17.65 h 18.32 v -16.01 c 0,-12.36 -9.51,-18.87 -18.59,-20.37 v 6.39"
         style="fill:#ffffff;fill-opacity:1;fill-rule:nonzero;stroke:none"
         transform="matrix(0.13333333,0,0,-0.13333333,0,336)" />
      <path
         id="path15"
         d="m 1569.38,2116.47 h 19.28 c 1.35,-11.67 7.99,-16.28 21.84,-16.28 10.05,0 18.86,3.52 18.86,12.48 0,9.49 -9.22,11.4 -24.01,14.79 -17.37,3.94 -33.26,8.55 -33.26,28.77 0,19.13 15.61,29.04 37.19,29.04 21.85,0 35.96,-10.72 37.45,-30.26 h -18.86 c -1.08,9.77 -8.68,14.66 -18.72,14.66 -10.59,0 -17.51,-4.49 -17.51,-11.41 0,-7.87 6.78,-10.17 21.17,-13.29 19.95,-4.35 36.23,-9.09 36.23,-29.99 0,-19.68 -15.88,-30.68 -37.73,-30.68 -26.32,0 -41.25,11.68 -41.93,32.17"
         style="fill:#ffffff;fill-opacity:1;fill-rule:nonzero;stroke:none"
         transform="matrix(0.13333333,0,0,-0.13333333,0,336)" />
      <path
         id="path16"
         d="m 557.949,2032.92 h 5.696 l 6.843,-28.17 c 0.723,-2.91 1.629,-7.33 1.629,-7.33 h 0.129 c 0,0 1.027,4.6 1.817,7.45 l 7.812,28.05 h 5.879 l 7.566,-28.05 c 0.793,-2.91 1.758,-7.45 1.758,-7.45 h 0.117 c 0,0 1.035,4.67 1.703,7.33 l 7.207,28.17 h 5.516 l -12.058,-43.31 h -5.208 l -7.937,30.53 c -0.664,2.54 -1.574,6.6 -1.574,6.6 h -0.117 c 0,0 -0.911,-4.06 -1.641,-6.6 l -8.477,-30.53 h -5.461 l -11.199,43.31"
         style="fill:#ffffff;fill-opacity:1;fill-rule:nonzero;stroke:none"
         transform="matrix(0.13333333,0,0,-0.13333333,0,336)" />
      <path
         id="path17"
         d="m 664.363,2011.29 c 0,10.18 -5.457,17.87 -15.633,17.87 -10.175,0 -15.625,-7.69 -15.625,-17.87 0,-10.18 5.45,-17.81 15.625,-17.81 10.176,0 15.633,7.63 15.633,17.81 z m -36.836,0 c 0,12.96 8.118,22.6 21.203,22.6 13.086,0 21.204,-9.64 21.204,-22.6 0,-12.97 -8.118,-22.59 -21.204,-22.59 -13.085,0 -21.203,9.62 -21.203,22.59"
         style="fill:#ffffff;fill-opacity:1;fill-rule:nonzero;stroke:none"
         transform="matrix(0.13333333,0,0,-0.13333333,0,336)" />
      <path
         id="path18"
         d="m 696.348,2012.32 h 12.84 c 6.054,0 9.085,3.03 9.085,7.94 0,5.27 -2.421,7.94 -8.781,7.94 h -13.144 z m -5.45,20.6 h 20.223 c 7.641,0 12.785,-4.79 12.785,-11.87 0,-5.27 -2.297,-9.03 -7.508,-10.73 v -0.18 c 4.422,-1.57 5.821,-4.6 6.239,-11.02 0.488,-6.97 1.211,-8.73 2.004,-9.27 v -0.24 h -5.879 c -0.91,0.78 -1.094,2.42 -1.574,9.69 -0.43,6.36 -2.969,8.6 -8.79,8.6 h -12.05 v -18.29 h -5.45 v 43.31"
         style="fill:#ffffff;fill-opacity:1;fill-rule:nonzero;stroke:none"
         transform="matrix(0.13333333,0,0,-0.13333333,0,336)" />
      <path
         id="path19"
         d="m 744.988,2032.92 h 5.45 v -38.28 h 22.714 v -5.03 h -28.164 v 43.31"
         style="fill:#ffffff;fill-opacity:1;fill-rule:nonzero;stroke:none"
         transform="matrix(0.13333333,0,0,-0.13333333,0,336)" />
      <path
         id="path20"
         d="m 808.176,1994.39 c 10.183,0 14.234,6.54 14.234,16.72 0,10.18 -3.633,17.09 -13.805,17.09 h -10.121 v -33.81 z m -15.141,38.53 h 15.742 c 13.032,0 19.211,-8.85 19.211,-21.81 0,-12.97 -6.601,-21.5 -19.629,-21.5 h -15.324 v 43.31"
         style="fill:#ffffff;fill-opacity:1;fill-rule:nonzero;stroke:none"
         transform="matrix(0.13333333,0,0,-0.13333333,0,336)" />
      <path
         id="path21"
         d="m 871.453,2011.29 c 0,12.73 7.641,22.6 20.539,22.6 10.117,0 16.231,-5.82 17.383,-13.82 h -5.332 c -1.023,5.39 -5.32,9.09 -12.168,9.09 -9.512,0 -14.844,-7.69 -14.844,-17.87 0,-10.6 5.879,-17.75 14.903,-17.75 8.171,0 12.05,5.58 12.597,11.94 h 5.391 c -0.059,-4.3 -2.117,-9.15 -5.203,-12.18 -3.039,-2.97 -7.453,-4.54 -12.973,-4.54 -12.293,0 -20.293,9.38 -20.293,22.53"
         style="fill:#ffffff;fill-opacity:1;fill-rule:nonzero;stroke:none"
         transform="matrix(0.13333333,0,0,-0.13333333,0,336)" />
      <path
         id="path22"
         d="m 930.52,2032.92 h 5.449 v -38.28 h 22.715 v -5.03 H 930.52 v 43.31"
         style="fill:#ffffff;fill-opacity:1;fill-rule:nonzero;stroke:none"
         transform="matrix(0.13333333,0,0,-0.13333333,0,336)" />
      <path
         id="path23"
         d="m 986.926,2007.23 h 14.164 l -4.957,14.54 c -0.852,2.43 -1.945,6.12 -1.945,6.12 h -0.118 c 0,0 -1.148,-3.64 -2,-6.12 z m 4.109,25.69 h 6.121 l 15.994,-43.31 h -5.93 l -4.61,13.2 h -17.266 l -4.66,-13.2 h -5.579 l 15.93,43.31"
         style="fill:#ffffff;fill-opacity:1;fill-rule:nonzero;stroke:none"
         transform="matrix(0.13333333,0,0,-0.13333333,0,336)" />
      <path
         id="path24"
         d="m 1028.96,2004.27 h 5.33 c 0.73,-7.34 5.21,-11.15 13.39,-11.15 5.99,0 10.3,2.73 10.3,8.11 0,5.95 -5.22,7.34 -12.97,9.04 -7.63,1.69 -14.17,3.87 -14.17,12.05 0,7.14 5.94,11.45 14.72,11.45 10.84,0 15.33,-5.52 16.41,-13.51 h -5.14 c -0.79,6.18 -4.79,9.27 -11.15,9.27 -5.88,0 -9.75,-2.49 -9.75,-6.97 0,-4.91 4.84,-6.36 11.33,-7.63 8.41,-1.7 16.11,-3.76 16.11,-13.51 0,-8.12 -6.6,-12.66 -15.94,-12.66 -12.17,0 -17.99,6.78 -18.47,15.51"
         style="fill:#ffffff;fill-opacity:1;fill-rule:nonzero;stroke:none"
         transform="matrix(0.13333333,0,0,-0.13333333,0,336)" />
      <path
         id="path25"
         d="m 1081.36,2004.27 h 5.33 c 0.73,-7.34 5.21,-11.15 13.39,-11.15 5.99,0 10.3,2.73 10.3,8.11 0,5.95 -5.21,7.34 -12.97,9.04 -7.62,1.69 -14.17,3.87 -14.17,12.05 0,7.14 5.94,11.45 14.72,11.45 10.84,0 15.33,-5.52 16.41,-13.51 h -5.14 c -0.79,6.18 -4.79,9.27 -11.14,9.27 -5.88,0 -9.76,-2.49 -9.76,-6.97 0,-4.91 4.84,-6.36 11.33,-7.63 8.42,-1.7 16.11,-3.76 16.11,-13.51 0,-8.12 -6.6,-12.66 -15.94,-12.66 -12.16,0 -17.98,6.78 -18.47,15.51"
         style="fill:#ffffff;fill-opacity:1;fill-rule:nonzero;stroke:none"
         transform="matrix(0.13333333,0,0,-0.13333333,0,336)" />
      <path
         id="path26"
         d="m 1169,2007.23 h 14.17 l -4.96,14.54 c -0.85,2.43 -1.94,6.12 -1.94,6.12 h -0.12 c 0,0 -1.15,-3.64 -2,-6.12 z m 4.12,25.69 h 6.12 l 15.99,-43.31 h -5.93 l -4.61,13.2 h -17.27 l -4.66,-13.2 h -5.57 l 15.93,43.31"
         style="fill:#ffffff;fill-opacity:1;fill-rule:nonzero;stroke:none"
         transform="matrix(0.13333333,0,0,-0.13333333,0,336)" />
      <path
         id="path27"
         d="m 1214.37,2032.92 h 30.59 v -4.79 h -25.14 v -13.68 h 22.84 v -4.61 h -22.84 v -15.2 h 25.87 v -5.03 h -31.32 v 43.31"
         style="fill:#ffffff;fill-opacity:1;fill-rule:nonzero;stroke:none"
         transform="matrix(0.13333333,0,0,-0.13333333,0,336)" />
      <path
         id="path28"
         d="m 1263.19,2004.27 h 5.34 c 0.73,-7.34 5.21,-11.15 13.38,-11.15 6,0 10.31,2.73 10.31,8.11 0,5.95 -5.22,7.34 -12.97,9.04 -7.63,1.69 -14.17,3.87 -14.17,12.05 0,7.14 5.94,11.45 14.71,11.45 10.84,0 15.34,-5.52 16.42,-13.51 h -5.15 c -0.79,6.18 -4.78,9.27 -11.14,9.27 -5.88,0 -9.75,-2.49 -9.75,-6.97 0,-4.91 4.84,-6.36 11.32,-7.63 8.42,-1.7 16.12,-3.76 16.12,-13.51 0,-8.12 -6.6,-12.66 -15.94,-12.66 -12.17,0 -17.99,6.78 -18.48,15.51"
         style="fill:#ffffff;fill-opacity:1;fill-rule:nonzero;stroke:none"
         transform="matrix(0.13333333,0,0,-0.13333333,0,336)" />
      <path
         id="path29"
         d="m 1313.48,2032.92 h 34.28 v -4.79 h -14.41 v -38.52 h -5.45 v 38.52 h -14.42 v 4.79"
         style="fill:#ffffff;fill-opacity:1;fill-rule:nonzero;stroke:none"
         transform="matrix(0.13333333,0,0,-0.13333333,0,336)" />
      <path
         id="path30"
         d="m 1367.65,2032.92 h 5.45 v -18.42 h 23.13 v 18.42 h 5.46 v -43.31 h -5.46 v 20.47 h -23.13 v -20.47 h -5.45 v 43.31"
         style="fill:#ffffff;fill-opacity:1;fill-rule:nonzero;stroke:none"
         transform="matrix(0.13333333,0,0,-0.13333333,0,336)" />
      <path
         id="path31"
         d="m 1424.29,2032.92 h 30.58 v -4.79 h -25.13 v -13.68 h 22.83 v -4.61 h -22.83 v -15.2 h 25.87 v -5.03 h -31.32 v 43.31"
         style="fill:#ffffff;fill-opacity:1;fill-rule:nonzero;stroke:none"
         transform="matrix(0.13333333,0,0,-0.13333333,0,336)" />
      <path
         id="path32"
         d="M 1473.71,2032.92 H 1508 v -4.79 h -14.42 v -38.52 h -5.45 v 38.52 h -14.42 v 4.79"
         style="fill:#ffffff;fill-opacity:1;fill-rule:nonzero;stroke:none"
         transform="matrix(0.13333333,0,0,-0.13333333,0,336)" />
      <path
         id="path33"
         d="m 1528,2032.92 h 5.45 v -43.31 H 1528 v 43.31"
         style="fill:#ffffff;fill-opacity:1;fill-rule:nonzero;stroke:none"
         transform="matrix(0.13333333,0,0,-0.13333333,0,336)" />
      <path
         id="path34"
         d="m 1554.56,2011.29 c 0,12.73 7.64,22.6 20.54,22.6 10.11,0 16.23,-5.82 17.38,-13.82 h -5.33 c -1.03,5.39 -5.32,9.09 -12.17,9.09 -9.51,0 -14.84,-7.69 -14.84,-17.87 0,-10.6 5.88,-17.75 14.9,-17.75 8.17,0 12.05,5.58 12.6,11.94 h 5.39 c -0.06,-4.3 -2.12,-9.15 -5.21,-12.18 -3.03,-2.97 -7.45,-4.54 -12.97,-4.54 -12.29,0 -20.29,9.38 -20.29,22.53"
         style="fill:#ffffff;fill-opacity:1;fill-rule:nonzero;stroke:none"
         transform="matrix(0.13333333,0,0,-0.13333333,0,336)" />
      <path
         id="path35"
         d="m 1610.89,2004.27 h 5.33 c 0.73,-7.34 5.22,-11.15 13.39,-11.15 6,0 10.3,2.73 10.3,8.11 0,5.95 -5.21,7.34 -12.97,9.04 -7.62,1.69 -14.17,3.87 -14.17,12.05 0,7.14 5.94,11.45 14.72,11.45 10.84,0 15.33,-5.52 16.42,-13.51 h -5.15 c -0.79,6.18 -4.79,9.27 -11.14,9.27 -5.88,0 -9.76,-2.49 -9.76,-6.97 0,-4.91 4.85,-6.36 11.33,-7.63 8.42,-1.7 16.11,-3.76 16.11,-13.51 0,-8.12 -6.6,-12.66 -15.93,-12.66 -12.17,0 -17.99,6.78 -18.48,15.51"
         style="fill:#ffffff;fill-opacity:1;fill-rule:nonzero;stroke:none"
         transform="matrix(0.13333333,0,0,-0.13333333,0,336)" />
      <path
         id="path36"
         d="M 1649.81,2049.2 H 554.719 v 2.22 H 1649.81 v -2.22"
         style="fill:#ffffff;fill-opacity:1;fill-rule:nonzero;stroke:none"
         transform="matrix(0.13333333,0,0,-0.13333333,0,336)" />
      <path
         id="path37"
         d="M 1649.81,1970.27 H 554.719 v 2.22 H 1649.81 v -2.22"
         style="fill:#ffffff;fill-opacity:1;fill-rule:nonzero;stroke:none"
         transform="matrix(0.13333333,0,0,-0.13333333,0,336)" />
      <path
         id="path38"
         d="m 281.281,1929.84 c -26.035,-20.06 -63.289,-15.28 -83.468,10.63 -20.067,26.03 -15.407,63.41 10.625,83.59 18.273,14.09 42.871,16.36 78.933,6.92 l 19.824,-5.84 c 1.789,-38.94 0.836,-74.64 -25.914,-95.3 z m 197.157,227.84 c -24.836,32.12 -66.497,43.95 -103.153,32.49 -0.015,0 -0.023,-0.01 -0.023,-0.03 v -37.95 c 25.078,13.5 57.199,7.29 75.23,-16.12 20.18,-25.91 15.285,-63.41 -10.625,-83.35 -22.332,-17.43 -57.441,-13.02 -78.937,-7.88 l -19.942,5.97 c -0.238,6.8 -0.476,13.37 -0.476,19.82 v 206.12 c 0,0.46 -0.371,0.83 -0.832,0.83 h -33.207 c -0.461,0 -0.832,-0.37 -0.832,-0.83 v -215.31 l -22.45,6.8 c -29.253,5.97 -65.675,7.41 -96.367,-16.36 -41.195,-32 -48.844,-91.59 -16.836,-132.9 32,-41.32 91.59,-48.96 132.785,-16.96 36.782,28.42 40.844,70.57 39.649,112.61 l 22.57,-6.57 c 30.809,-5.49 67.946,-5.38 96.485,16.72 41.32,32 48.843,91.59 16.961,132.9"
         style="fill:#ffffff;fill-opacity:1;fill-rule:nonzero;stroke:none"
         transform="matrix(0.13333333,0,0,-0.13333333,0,336)" />
      <path
         id="path39"
         d="m 401.715,1982.34 6.172,-26.82 c 0.898,-3.91 3.953,-6.97 7.867,-7.87 l 26.824,-6.17 -26.824,-6.17 c -3.914,-0.9 -6.969,-3.95 -7.867,-7.86 l -6.172,-26.83 -6.168,26.83 c -0.902,3.91 -3.957,6.96 -7.867,7.86 l -26.828,6.17 26.828,6.17 c 3.91,0.9 6.965,3.96 7.867,7.87 l 6.168,26.82"
         style="fill:#ffffff;fill-opacity:1;fill-rule:nonzero;stroke:none"
         transform="matrix(0.13333333,0,0,-0.13333333,0,336)" />
      <path
         id="path40"
         d="m 589.914,462.32 c 18.457,0 25.649,11.27 25.649,30.539 0,19.27 -8.411,32.7 -25.102,32.7 H 574.715 V 462.32 Z m -34.871,80.071 h 37.859 c 25.918,0 42.61,-20.903 42.61,-49.532 0,-15.738 -5.293,-29.589 -15.473,-38.14 -7.191,-5.969 -16.555,-9.36 -28.769,-9.36 h -36.227 v 97.032"
         style="fill:url(#linearGradient44);fill-opacity:1;fill-rule:nonzero;stroke:none"
         transform="matrix(0.13333333,0,0,-0.13333333,0,336)"
         clip-path="url(#clipPath44)" />
      <path
         id="path45"
         d="m 693.074,499.512 h 20.903 c 10.718,0 16.011,5.558 16.011,13.297 0,7.871 -5.023,13.703 -15.472,13.703 h -21.442 z m -19.672,42.879 h 44.504 c 18.727,0 31.219,-10.852 31.219,-27.012 0,-11.399 -5.293,-20.078 -17.777,-23.469 v -0.41 c 8.953,-2.57 13.57,-7.738 14.789,-19.539 1.355,-13.711 0.816,-24.16 4.207,-25.652 v -0.95 h -18.867 c -2.442,1.09 -2.711,11.95 -3.532,22.403 -0.804,10.578 -6.777,16.547 -18.996,16.547 h -15.875 v -38.95 h -19.672 v 97.032"
         style="fill:url(#linearGradient49);fill-opacity:1;fill-rule:nonzero;stroke:none"
         transform="matrix(0.13333333,0,0,-0.13333333,0,336)"
         clip-path="url(#clipPath49)" />
      <path
         id="path50"
         d="m 774.266,465.039 h 0.14 c 5.434,0 9.836,-4.41 9.836,-9.84 v 0 c 0,-5.429 -4.402,-9.84 -9.836,-9.84 h -0.14 c -5.43,0 -9.836,4.411 -9.836,9.84 v 0 c 0,5.43 4.406,9.84 9.836,9.84"
         style="fill:url(#linearGradient54);fill-opacity:1;fill-rule:nonzero;stroke:none"
         transform="matrix(0.13333333,0,0,-0.13333333,0,336)"
         clip-path="url(#clipPath54)" />
      <path
         id="path55"
         d="m 859.625,461.641 h 22.668 c 9.492,0 15.195,5.3 15.195,13.168 0,9.23 -6.789,13.98 -15.746,13.98 h -22.117 z m 21.309,41.668 c 8.546,0 14.379,4.07 14.379,11.671 0,7.192 -5.293,11.399 -13.977,11.399 h -21.711 v -23.07 z m -40.985,39.082 h 43.43 c 10.441,0 18.445,-2.582 23.473,-7.059 5.293,-4.742 7.738,-10.582 7.738,-18.184 0,-9.91 -6.113,-16.289 -15.207,-19.41 v -0.406 c 10.726,-3.121 18.051,-12.07 18.051,-24.012 0,-9.09 -2.844,-15.34 -8.547,-20.218 -5.567,-4.891 -14.114,-7.743 -24.434,-7.743 h -44.504 v 97.032"
         style="fill:url(#linearGradient59);fill-opacity:1;fill-rule:nonzero;stroke:none"
         transform="matrix(0.13333333,0,0,-0.13333333,0,336)"
         clip-path="url(#clipPath59)" />
      <path
         id="path60"
         d="m 956.137,542.391 h 19.676 v -38 h 38.127 v 38 h 19.68 v -97.032 h -19.68 v 42.75 h -38.127 v -42.75 h -19.676 v 97.032"
         style="fill:url(#linearGradient64);fill-opacity:1;fill-rule:nonzero;stroke:none"
         transform="matrix(0.13333333,0,0,-0.13333333,0,336)"
         clip-path="url(#clipPath64)" />
      <path
         id="path65"
         d="m 1099.6,481.051 h 25.65 l -8.68,27.961 c -1.63,5.16 -3.94,14.929 -3.94,14.929 h -0.27 c 0,0 -2.44,-9.769 -4.07,-14.929 z m 2.86,61.34 h 20.35 l 34.2,-97.032 h -20.49 l -6.52,20.629 h -35.01 l -6.38,-20.629 h -19.95 l 33.8,97.032"
         style="fill:url(#linearGradient69);fill-opacity:1;fill-rule:nonzero;stroke:none"
         transform="matrix(0.13333333,0,0,-0.13333333,0,336)"
         clip-path="url(#clipPath69)" />
      <path
         id="path70"
         d="m 1254.6,458.379 h -0.27 c -6.65,-11.109 -15.74,-15.051 -27.28,-15.051 -14.66,0 -26.06,5.293 -34.06,14.113 -8.01,8.95 -12.63,21.45 -12.63,36.09 0,16.16 5.71,30.27 15.89,39.629 7.86,7.199 18.18,11.129 31.21,11.129 24.43,0 38.4,-13.43 41.52,-32.43 h -19.27 c -2.17,9.36 -9.36,16.153 -21.84,16.153 -18.33,0 -27.42,-15.203 -27.42,-34.481 0,-19.812 10.45,-34.332 27.15,-34.332 15.05,0 24.97,11.27 24.97,21.992 v 0.539 h -23.35 v 15.2 h 40.85 v -51.571 h -14.79 l -0.68,13.02"
         style="fill:url(#linearGradient74);fill-opacity:1;fill-rule:nonzero;stroke:none"
         transform="matrix(0.13333333,0,0,-0.13333333,0,336)"
         clip-path="url(#clipPath74)" />
      <path
         id="path75"
         d="m 1334.83,481.051 h 25.64 l -8.68,27.961 c -1.63,5.16 -3.94,14.929 -3.94,14.929 h -0.27 c 0,0 -2.44,-9.769 -4.07,-14.929 z m 2.85,61.34 h 20.35 l 34.2,-97.032 h -20.49 l -6.52,20.629 h -35.01 l -6.38,-20.629 h -19.94 l 33.79,97.032"
         style="fill:url(#linearGradient79);fill-opacity:1;fill-rule:nonzero;stroke:none"
         transform="matrix(0.13333333,0,0,-0.13333333,0,336)"
         clip-path="url(#clipPath79)" />
      <path
         id="path80"
         d="m 1404.87,542.391 h 78.03 v -16.563 h -29.17 v -80.469 h -19.68 v 80.469 h -29.18 v 16.563"
         style="fill:url(#linearGradient84);fill-opacity:1;fill-rule:nonzero;stroke:none"
         transform="matrix(0.13333333,0,0,-0.13333333,0,336)"
         clip-path="url(#clipPath84)" />
      <path
         id="path85"
         d="m 1518.22,512.398 c 4.2,1.364 9.22,5.704 9.22,12.352 h -8.95 v 17.641 h 18.32 v -16.012 c 0,-12.348 -9.51,-18.867 -18.59,-20.359 v 6.378"
         style="fill:url(#linearGradient89);fill-opacity:1;fill-rule:nonzero;stroke:none"
         transform="matrix(0.13333333,0,0,-0.13333333,0,336)"
         clip-path="url(#clipPath89)" />
      <path
         id="path90"
         d="m 1569.38,475.359 h 19.28 c 1.35,-11.679 7.99,-16.289 21.84,-16.289 10.05,0 18.86,3.52 18.86,12.489 0,9.492 -9.22,11.39 -24.01,14.781 -17.37,3.941 -33.26,8.551 -33.26,28.769 0,19.141 15.61,29.051 37.19,29.051 21.85,0 35.96,-10.73 37.45,-30.262 h -18.86 c -1.08,9.774 -8.68,14.653 -18.72,14.653 -10.59,0 -17.51,-4.481 -17.51,-11.403 0,-7.867 6.78,-10.168 21.17,-13.296 19.95,-4.34 36.23,-9.09 36.23,-29.993 0,-19.668 -15.88,-30.668 -37.73,-30.668 -26.32,0 -41.25,11.668 -41.93,32.168"
         style="fill:url(#linearGradient94);fill-opacity:1;fill-rule:nonzero;stroke:none"
         transform="matrix(0.13333333,0,0,-0.13333333,0,336)"
         clip-path="url(#clipPath94)" />
      <path
         id="path95"
         d="m 557.949,391.801 h 5.696 l 6.843,-28.16 c 0.723,-2.911 1.629,-7.34 1.629,-7.34 h 0.129 c 0,0 1.027,4.609 1.817,7.449 l 7.812,28.051 h 5.879 l 7.566,-28.051 c 0.793,-2.898 1.758,-7.449 1.758,-7.449 h 0.117 c 0,0 1.035,4.668 1.703,7.34 l 7.207,28.16 h 5.516 l -12.058,-43.313 h -5.208 l -7.937,30.532 c -0.664,2.55 -1.574,6.601 -1.574,6.601 h -0.117 c 0,0 -0.911,-4.051 -1.641,-6.601 l -8.477,-30.532 h -5.461 l -11.199,43.313"
         style="fill:url(#linearGradient99);fill-opacity:1;fill-rule:nonzero;stroke:none"
         transform="matrix(0.13333333,0,0,-0.13333333,0,336)"
         clip-path="url(#clipPath99)" />
      <path
         id="path100"
         d="m 664.363,370.172 c 0,10.187 -5.457,17.879 -15.633,17.879 -10.175,0 -15.625,-7.692 -15.625,-17.879 0,-10.172 5.45,-17.801 15.625,-17.801 10.176,0 15.633,7.629 15.633,17.801 z m -36.836,0 c 0,12.969 8.118,22.598 21.203,22.598 13.086,0 21.204,-9.629 21.204,-22.598 0,-12.961 -8.118,-22.59 -21.204,-22.59 -13.085,0 -21.203,9.629 -21.203,22.59"
         style="fill:url(#linearGradient104);fill-opacity:1;fill-rule:nonzero;stroke:none"
         transform="matrix(0.13333333,0,0,-0.13333333,0,336)"
         clip-path="url(#clipPath104)" />
      <path
         id="path105"
         d="m 696.348,371.211 h 12.84 c 6.054,0 9.085,3.027 9.085,7.93 0,5.269 -2.421,7.937 -8.781,7.937 h -13.144 z m -5.45,20.59 h 20.223 c 7.641,0 12.785,-4.781 12.785,-11.871 0,-5.27 -2.297,-9.032 -7.508,-10.719 v -0.18 c 4.422,-1.582 5.821,-4.609 6.239,-11.031 0.488,-6.969 1.211,-8.719 2.004,-9.27 v -0.242 h -5.879 c -0.91,0.793 -1.094,2.422 -1.574,9.692 -0.43,6.359 -2.969,8.609 -8.79,8.609 h -12.05 v -18.301 h -5.45 v 43.313"
         style="fill:url(#linearGradient109);fill-opacity:1;fill-rule:nonzero;stroke:none"
         transform="matrix(0.13333333,0,0,-0.13333333,0,336)"
         clip-path="url(#clipPath109)" />
      <path
         id="path110"
         d="m 744.988,391.801 h 5.45 V 353.52 h 22.714 v -5.032 h -28.164 v 43.313"
         style="fill:url(#linearGradient114);fill-opacity:1;fill-rule:nonzero;stroke:none"
         transform="matrix(0.13333333,0,0,-0.13333333,0,336)"
         clip-path="url(#clipPath114)" />
      <path
         id="path115"
         d="m 808.176,353.281 c 10.183,0 14.234,6.539 14.234,16.707 0,10.184 -3.633,17.09 -13.805,17.09 h -10.121 v -33.797 z m -15.141,38.52 h 15.742 c 13.032,0 19.211,-8.84 19.211,-21.813 0,-12.957 -6.601,-21.5 -19.629,-21.5 h -15.324 v 43.313"
         style="fill:url(#linearGradient119);fill-opacity:1;fill-rule:nonzero;stroke:none"
         transform="matrix(0.13333333,0,0,-0.13333333,0,336)"
         clip-path="url(#clipPath119)" />
      <path
         id="path120"
         d="m 871.453,370.172 c 0,12.726 7.641,22.598 20.539,22.598 10.117,0 16.231,-5.809 17.383,-13.809 h -5.332 c -1.023,5.391 -5.32,9.09 -12.168,9.09 -9.512,0 -14.844,-7.692 -14.844,-17.879 0,-10.602 5.879,-17.742 14.903,-17.742 8.171,0 12.05,5.57 12.597,11.929 h 5.391 c -0.059,-4.3 -2.117,-9.148 -5.203,-12.168 -3.039,-2.972 -7.453,-4.55 -12.973,-4.55 -12.293,0 -20.293,9.39 -20.293,22.531"
         style="fill:url(#linearGradient124);fill-opacity:1;fill-rule:nonzero;stroke:none"
         transform="matrix(0.13333333,0,0,-0.13333333,0,336)"
         clip-path="url(#clipPath124)" />
      <path
         id="path125"
         d="m 930.52,391.801 h 5.449 V 353.52 h 22.715 v -5.032 H 930.52 v 43.313"
         style="fill:url(#linearGradient129);fill-opacity:1;fill-rule:nonzero;stroke:none"
         transform="matrix(0.13333333,0,0,-0.13333333,0,336)"
         clip-path="url(#clipPath129)" />
      <path
         id="path130"
         d="m 986.926,366.121 h 14.164 l -4.957,14.539 c -0.852,2.422 -1.945,6.121 -1.945,6.121 h -0.118 c 0,0 -1.148,-3.64 -2,-6.121 z m 4.109,25.68 h 6.121 l 15.994,-43.313 h -5.93 l -4.61,13.211 h -17.266 l -4.66,-13.211 h -5.579 l 15.93,43.313"
         style="fill:url(#linearGradient134);fill-opacity:1;fill-rule:nonzero;stroke:none"
         transform="matrix(0.13333333,0,0,-0.13333333,0,336)"
         clip-path="url(#clipPath134)" />
      <path
         id="path135"
         d="m 1028.96,363.148 h 5.33 c 0.73,-7.328 5.21,-11.136 13.39,-11.136 5.99,0 10.3,2.718 10.3,8.109 0,5.938 -5.22,7.328 -12.97,9.027 -7.63,1.692 -14.17,3.883 -14.17,12.051 0,7.153 5.94,11.449 14.72,11.449 10.84,0 15.33,-5.507 16.41,-13.507 h -5.14 c -0.79,6.179 -4.79,9.269 -11.15,9.269 -5.88,0 -9.75,-2.48 -9.75,-6.969 0,-4.902 4.84,-6.359 11.33,-7.632 8.41,-1.7 16.11,-3.75 16.11,-13.508 0,-8.11 -6.6,-12.66 -15.94,-12.66 -12.17,0 -17.99,6.789 -18.47,15.507"
         style="fill:url(#linearGradient139);fill-opacity:1;fill-rule:nonzero;stroke:none"
         transform="matrix(0.13333333,0,0,-0.13333333,0,336)"
         clip-path="url(#clipPath139)" />
      <path
         id="path140"
         d="m 1081.36,363.148 h 5.33 c 0.73,-7.328 5.21,-11.136 13.39,-11.136 5.99,0 10.3,2.718 10.3,8.109 0,5.938 -5.21,7.328 -12.97,9.027 -7.62,1.692 -14.17,3.883 -14.17,12.051 0,7.153 5.94,11.449 14.72,11.449 10.84,0 15.33,-5.507 16.41,-13.507 h -5.14 c -0.79,6.179 -4.79,9.269 -11.14,9.269 -5.88,0 -9.76,-2.48 -9.76,-6.969 0,-4.902 4.84,-6.359 11.33,-7.632 8.42,-1.7 16.11,-3.75 16.11,-13.508 0,-8.11 -6.6,-12.66 -15.94,-12.66 -12.16,0 -17.98,6.789 -18.47,15.507"
         style="fill:url(#linearGradient144);fill-opacity:1;fill-rule:nonzero;stroke:none"
         transform="matrix(0.13333333,0,0,-0.13333333,0,336)"
         clip-path="url(#clipPath144)" />
      <path
         id="path145"
         d="m 1169,366.121 h 14.17 l -4.96,14.539 c -0.85,2.422 -1.94,6.121 -1.94,6.121 h -0.12 c 0,0 -1.15,-3.64 -2,-6.121 z m 4.12,25.68 h 6.12 l 15.99,-43.313 h -5.93 l -4.61,13.211 h -17.27 l -4.66,-13.211 h -5.57 l 15.93,43.313"
         style="fill:url(#linearGradient149);fill-opacity:1;fill-rule:nonzero;stroke:none"
         transform="matrix(0.13333333,0,0,-0.13333333,0,336)"
         clip-path="url(#clipPath149)" />
      <path
         id="path150"
         d="m 1214.37,391.801 h 30.59 v -4.781 h -25.14 v -13.692 h 22.84 v -4.609 h -22.84 V 353.52 h 25.87 v -5.032 h -31.32 v 43.313"
         style="fill:url(#linearGradient154);fill-opacity:1;fill-rule:nonzero;stroke:none"
         transform="matrix(0.13333333,0,0,-0.13333333,0,336)"
         clip-path="url(#clipPath154)" />
      <path
         id="path155"
         d="m 1263.19,363.148 h 5.34 c 0.73,-7.328 5.21,-11.136 13.38,-11.136 6,0 10.31,2.718 10.31,8.109 0,5.938 -5.22,7.328 -12.97,9.027 -7.63,1.692 -14.17,3.883 -14.17,12.051 0,7.153 5.94,11.449 14.71,11.449 10.84,0 15.34,-5.507 16.42,-13.507 h -5.15 c -0.79,6.179 -4.78,9.269 -11.14,9.269 -5.88,0 -9.75,-2.48 -9.75,-6.969 0,-4.902 4.84,-6.359 11.32,-7.632 8.42,-1.7 16.12,-3.75 16.12,-13.508 0,-8.11 -6.6,-12.66 -15.94,-12.66 -12.17,0 -17.99,6.789 -18.48,15.507"
         style="fill:url(#linearGradient159);fill-opacity:1;fill-rule:nonzero;stroke:none"
         transform="matrix(0.13333333,0,0,-0.13333333,0,336)"
         clip-path="url(#clipPath159)" />
      <path
         id="path160"
         d="m 1313.48,391.801 h 34.28 v -4.781 h -14.41 v -38.532 h -5.45 v 38.532 h -14.42 v 4.781"
         style="fill:url(#linearGradient164);fill-opacity:1;fill-rule:nonzero;stroke:none"
         transform="matrix(0.13333333,0,0,-0.13333333,0,336)"
         clip-path="url(#clipPath164)" />
      <path
         id="path165"
         d="m 1367.65,391.801 h 5.45 v -18.41 h 23.13 v 18.41 h 5.46 v -43.313 h -5.46 v 20.473 h -23.13 v -20.473 h -5.45 v 43.313"
         style="fill:url(#linearGradient169);fill-opacity:1;fill-rule:nonzero;stroke:none"
         transform="matrix(0.13333333,0,0,-0.13333333,0,336)"
         clip-path="url(#clipPath169)" />
      <path
         id="path170"
         d="m 1424.29,391.801 h 30.58 v -4.781 h -25.13 v -13.692 h 22.83 v -4.609 h -22.83 V 353.52 h 25.87 v -5.032 h -31.32 v 43.313"
         style="fill:url(#linearGradient174);fill-opacity:1;fill-rule:nonzero;stroke:none"
         transform="matrix(0.13333333,0,0,-0.13333333,0,336)"
         clip-path="url(#clipPath174)" />
      <path
         id="path175"
         d="M 1473.71,391.801 H 1508 v -4.781 h -14.42 v -38.532 h -5.45 v 38.532 h -14.42 v 4.781"
         style="fill:url(#linearGradient179);fill-opacity:1;fill-rule:nonzero;stroke:none"
         transform="matrix(0.13333333,0,0,-0.13333333,0,336)"
         clip-path="url(#clipPath179)" />
      <path
         id="path180"
         d="m 1528,391.801 h 5.45 V 348.488 H 1528 v 43.313"
         style="fill:url(#linearGradient184);fill-opacity:1;fill-rule:nonzero;stroke:none"
         transform="matrix(0.13333333,0,0,-0.13333333,0,336)"
         clip-path="url(#clipPath184)" />
      <path
         id="path185"
         d="m 1554.56,370.172 c 0,12.726 7.64,22.598 20.54,22.598 10.11,0 16.23,-5.809 17.38,-13.809 h -5.33 c -1.03,5.391 -5.32,9.09 -12.17,9.09 -9.51,0 -14.84,-7.692 -14.84,-17.879 0,-10.602 5.88,-17.742 14.9,-17.742 8.17,0 12.05,5.57 12.6,11.929 h 5.39 c -0.06,-4.3 -2.12,-9.148 -5.21,-12.168 -3.03,-2.972 -7.45,-4.55 -12.97,-4.55 -12.29,0 -20.29,9.39 -20.29,22.531"
         style="fill:url(#linearGradient189);fill-opacity:1;fill-rule:nonzero;stroke:none"
         transform="matrix(0.13333333,0,0,-0.13333333,0,336)"
         clip-path="url(#clipPath189)" />
      <path
         id="path190"
         d="m 1610.89,363.148 h 5.33 c 0.73,-7.328 5.22,-11.136 13.39,-11.136 6,0 10.3,2.718 10.3,8.109 0,5.938 -5.21,7.328 -12.97,9.027 -7.62,1.692 -14.17,3.883 -14.17,12.051 0,7.153 5.94,11.449 14.72,11.449 10.84,0 15.33,-5.507 16.42,-13.507 h -5.15 c -0.79,6.179 -4.79,9.269 -11.14,9.269 -5.88,0 -9.76,-2.48 -9.76,-6.969 0,-4.902 4.85,-6.359 11.33,-7.632 8.42,-1.7 16.11,-3.75 16.11,-13.508 0,-8.11 -6.6,-12.66 -15.93,-12.66 -12.17,0 -17.99,6.789 -18.48,15.507"
         style="fill:url(#linearGradient194);fill-opacity:1;fill-rule:nonzero;stroke:none"
         transform="matrix(0.13333333,0,0,-0.13333333,0,336)"
         clip-path="url(#clipPath194)" />
      <path
         id="path195"
         d="M 1649.81,408.082 H 554.719 v 2.227 H 1649.81 v -2.227"
         style="fill:url(#linearGradient199);fill-opacity:1;fill-rule:nonzero;stroke:none"
         transform="matrix(0.13333333,0,0,-0.13333333,0,336)"
         clip-path="url(#clipPath199)" />
      <path
         id="path200"
         d="M 1649.81,329.148 H 554.719 v 2.231 H 1649.81 v -2.231"
         style="fill:url(#linearGradient204);fill-opacity:1;fill-rule:nonzero;stroke:none"
         transform="matrix(0.13333333,0,0,-0.13333333,0,336)"
         clip-path="url(#clipPath204)" />
      <path
         id="path205"
         d="m 281.281,288.73 c -26.035,-20.058 -63.289,-15.289 -83.468,10.622 -20.067,26.039 -15.407,63.41 10.625,83.589 18.273,14.098 42.871,16.36 78.933,6.93 l 19.824,-5.851 c 1.789,-38.93 0.836,-74.629 -25.914,-95.29 z m 197.157,227.84 c -24.836,32.11 -66.497,43.942 -103.153,32.489 -0.015,-0.008 -0.023,-0.02 -0.023,-0.039 v -37.938 c 25.078,13.488 57.199,7.277 75.23,-16.121 20.18,-25.922 15.285,-63.41 -10.625,-83.359 -22.332,-17.43 -57.441,-13.012 -78.937,-7.883 l -19.942,5.972 c -0.238,6.809 -0.476,13.379 -0.476,19.829 v 206.109 c 0,0.461 -0.371,0.832 -0.832,0.832 h -33.207 c -0.461,0 -0.832,-0.371 -0.832,-0.832 V 420.32 l -22.45,6.809 c -29.253,5.973 -65.675,7.402 -96.367,-16.359 -41.195,-32 -48.844,-91.59 -16.836,-132.911 32,-41.32 91.59,-48.961 132.785,-16.961 36.782,28.422 40.844,70.582 39.649,112.614 l 22.57,-6.571 c 30.809,-5.492 67.946,-5.371 96.485,16.719 41.32,32 48.843,91.59 16.961,132.91"
         style="fill:url(#linearGradient209);fill-opacity:1;fill-rule:nonzero;stroke:none"
         transform="matrix(0.13333333,0,0,-0.13333333,0,336)"
         clip-path="url(#clipPath209)" />
      <path
         id="path210"
         d="m 401.715,341.23 6.172,-26.832 c 0.898,-3.91 3.953,-6.957 7.867,-7.859 l 26.824,-6.168 -26.824,-6.172 c -3.914,-0.898 -6.969,-3.961 -7.867,-7.867 l -6.172,-26.832 -6.168,26.832 c -0.902,3.906 -3.957,6.969 -7.867,7.867 l -26.828,6.172 26.828,6.168 c 3.91,0.902 6.965,3.949 7.867,7.859 l 6.168,26.832"
         style="fill:url(#linearGradient214);fill-opacity:1;fill-rule:nonzero;stroke:none"
         transform="matrix(0.13333333,0,0,-0.13333333,0,336)"
         clip-path="url(#clipPath214)" />
      <path
         id="path215"
         d="m 589.914,1282.88 c 18.457,0 25.649,11.27 25.649,30.53 0,19.28 -8.411,32.71 -25.102,32.71 h -15.746 v -63.24 z m -34.871,80.07 h 37.859 c 25.918,0 42.61,-20.9 42.61,-49.54 0,-15.73 -5.293,-29.58 -15.473,-38.13 -7.191,-5.97 -16.555,-9.36 -28.769,-9.36 h -36.227 v 97.03"
         style="fill:#100f0d;fill-opacity:1;fill-rule:nonzero;stroke:none"
         transform="matrix(0.13333333,0,0,-0.13333333,0,336)" />
      <path
         id="path216"
         d="m 693.074,1320.06 h 20.903 c 10.718,0 16.011,5.57 16.011,13.31 0,7.86 -5.023,13.7 -15.472,13.7 h -21.442 z m -19.672,42.89 h 44.504 c 18.727,0 31.219,-10.86 31.219,-27.01 0,-11.4 -5.293,-20.08 -17.777,-23.47 v -0.41 c 8.953,-2.58 13.57,-7.74 14.789,-19.55 1.355,-13.7 0.816,-24.15 4.207,-25.64 v -0.95 h -18.867 c -2.442,1.09 -2.711,11.94 -3.532,22.39 -0.804,10.58 -6.777,16.56 -18.996,16.56 h -15.875 v -38.95 h -19.672 v 97.03"
         style="fill:#100f0d;fill-opacity:1;fill-rule:nonzero;stroke:none"
         transform="matrix(0.13333333,0,0,-0.13333333,0,336)" />
      <path
         id="path217"
         d="m 774.266,1285.59 h 0.14 c 5.434,0 9.836,-4.4 9.836,-9.83 v 0 c 0,-5.44 -4.402,-9.84 -9.836,-9.84 h -0.14 c -5.43,0 -9.836,4.4 -9.836,9.84 v 0 c 0,5.43 4.406,9.83 9.836,9.83"
         style="fill:#100f0d;fill-opacity:1;fill-rule:nonzero;stroke:none"
         transform="matrix(0.13333333,0,0,-0.13333333,0,336)" />
      <path
         id="path218"
         d="m 859.625,1282.2 h 22.668 c 9.492,0 15.195,5.3 15.195,13.17 0,9.23 -6.789,13.98 -15.746,13.98 h -22.117 z m 21.309,41.66 c 8.546,0 14.379,4.07 14.379,11.68 0,7.19 -5.293,11.4 -13.977,11.4 h -21.711 v -23.08 z m -40.985,39.09 h 43.43 c 10.441,0 18.445,-2.58 23.473,-7.06 5.293,-4.74 7.738,-10.59 7.738,-18.19 0,-9.9 -6.113,-16.28 -15.207,-19.4 v -0.41 c 10.726,-3.12 18.051,-12.07 18.051,-24.01 0,-9.1 -2.844,-15.34 -8.547,-20.22 -5.567,-4.89 -14.114,-7.74 -24.434,-7.74 h -44.504 v 97.03"
         style="fill:#100f0d;fill-opacity:1;fill-rule:nonzero;stroke:none"
         transform="matrix(0.13333333,0,0,-0.13333333,0,336)" />
      <path
         id="path219"
         d="m 956.137,1362.95 h 19.676 v -38 h 38.127 v 38 h 19.68 v -97.03 h -19.68 v 42.75 h -38.127 v -42.75 h -19.676 v 97.03"
         style="fill:#100f0d;fill-opacity:1;fill-rule:nonzero;stroke:none"
         transform="matrix(0.13333333,0,0,-0.13333333,0,336)" />
      <path
         id="path220"
         d="m 1099.6,1301.61 h 25.65 l -8.68,27.96 c -1.63,5.15 -3.94,14.92 -3.94,14.92 h -0.27 c 0,0 -2.44,-9.77 -4.07,-14.92 z m 2.86,61.34 h 20.35 l 34.2,-97.03 h -20.49 l -6.52,20.63 h -35.01 l -6.38,-20.63 h -19.95 l 33.8,97.03"
         style="fill:#100f0d;fill-opacity:1;fill-rule:nonzero;stroke:none"
         transform="matrix(0.13333333,0,0,-0.13333333,0,336)" />
      <path
         id="path221"
         d="m 1254.6,1278.94 h -0.27 c -6.65,-11.12 -15.74,-15.06 -27.28,-15.06 -14.66,0 -26.06,5.3 -34.06,14.11 -8.01,8.96 -12.63,21.45 -12.63,36.1 0,16.16 5.71,30.27 15.89,39.63 7.86,7.2 18.18,11.13 31.21,11.13 24.43,0 38.4,-13.43 41.52,-32.43 h -19.27 c -2.17,9.36 -9.36,16.14 -21.84,16.14 -18.33,0 -27.42,-15.19 -27.42,-34.47 0,-19.81 10.45,-34.33 27.15,-34.33 15.05,0 24.97,11.27 24.97,21.99 v 0.54 h -23.35 v 15.2 h 40.85 v -51.57 h -14.79 l -0.68,13.02"
         style="fill:#100f0d;fill-opacity:1;fill-rule:nonzero;stroke:none"
         transform="matrix(0.13333333,0,0,-0.13333333,0,336)" />
      <path
         id="path222"
         d="m 1334.83,1301.61 h 25.64 l -8.68,27.96 c -1.63,5.15 -3.94,14.92 -3.94,14.92 h -0.27 c 0,0 -2.44,-9.77 -4.07,-14.92 z m 2.85,61.34 h 20.35 l 34.2,-97.03 h -20.49 l -6.52,20.63 h -35.01 l -6.38,-20.63 h -19.94 l 33.79,97.03"
         style="fill:#100f0d;fill-opacity:1;fill-rule:nonzero;stroke:none"
         transform="matrix(0.13333333,0,0,-0.13333333,0,336)" />
      <path
         id="path223"
         d="m 1404.87,1362.95 h 78.03 v -16.56 h -29.17 v -80.47 h -19.68 v 80.47 h -29.18 v 16.56"
         style="fill:#100f0d;fill-opacity:1;fill-rule:nonzero;stroke:none"
         transform="matrix(0.13333333,0,0,-0.13333333,0,336)" />
      <path
         id="path224"
         d="m 1518.22,1332.96 c 4.2,1.35 9.22,5.7 9.22,12.34 h -8.95 v 17.65 h 18.32 v -16.01 c 0,-12.36 -9.51,-18.87 -18.59,-20.36 v 6.38"
         style="fill:#100f0d;fill-opacity:1;fill-rule:nonzero;stroke:none"
         transform="matrix(0.13333333,0,0,-0.13333333,0,336)" />
      <path
         id="path225"
         d="m 1569.38,1295.91 h 19.28 c 1.35,-11.67 7.99,-16.28 21.84,-16.28 10.05,0 18.86,3.52 18.86,12.48 0,9.5 -9.22,11.4 -24.01,14.79 -17.37,3.94 -33.26,8.55 -33.26,28.77 0,19.14 15.61,29.05 37.19,29.05 21.85,0 35.96,-10.73 37.45,-30.27 h -18.86 c -1.08,9.78 -8.68,14.66 -18.72,14.66 -10.59,0 -17.51,-4.48 -17.51,-11.41 0,-7.86 6.78,-10.17 21.17,-13.29 19.95,-4.35 36.23,-9.09 36.23,-29.99 0,-19.68 -15.88,-30.67 -37.73,-30.67 -26.32,0 -41.25,11.67 -41.93,32.16"
         style="fill:#100f0d;fill-opacity:1;fill-rule:nonzero;stroke:none"
         transform="matrix(0.13333333,0,0,-0.13333333,0,336)" />
      <path
         id="path226"
         d="m 557.949,1212.36 h 5.696 l 6.843,-28.16 c 0.723,-2.91 1.629,-7.34 1.629,-7.34 h 0.129 c 0,0 1.027,4.61 1.817,7.45 l 7.812,28.05 h 5.879 l 7.566,-28.05 c 0.793,-2.91 1.758,-7.45 1.758,-7.45 h 0.117 c 0,0 1.035,4.67 1.703,7.34 l 7.207,28.16 h 5.516 l -12.058,-43.31 h -5.208 l -7.937,30.53 c -0.664,2.55 -1.574,6.61 -1.574,6.61 h -0.117 c 0,0 -0.911,-4.06 -1.641,-6.61 l -8.477,-30.53 h -5.461 l -11.199,43.31"
         style="fill:#100f0d;fill-opacity:1;fill-rule:nonzero;stroke:none"
         transform="matrix(0.13333333,0,0,-0.13333333,0,336)" />
      <path
         id="path227"
         d="m 664.363,1190.74 c 0,10.18 -5.457,17.87 -15.633,17.87 -10.175,0 -15.625,-7.69 -15.625,-17.87 0,-10.18 5.45,-17.81 15.625,-17.81 10.176,0 15.633,7.63 15.633,17.81 z m -36.836,0 c 0,12.96 8.118,22.59 21.203,22.59 13.086,0 21.204,-9.63 21.204,-22.59 0,-12.97 -8.118,-22.6 -21.204,-22.6 -13.085,0 -21.203,9.63 -21.203,22.6"
         style="fill:#100f0d;fill-opacity:1;fill-rule:nonzero;stroke:none"
         transform="matrix(0.13333333,0,0,-0.13333333,0,336)" />
      <path
         id="path228"
         d="m 696.348,1191.77 h 12.84 c 6.054,0 9.085,3.02 9.085,7.93 0,5.27 -2.421,7.93 -8.781,7.93 h -13.144 z m -5.45,20.59 h 20.223 c 7.641,0 12.785,-4.78 12.785,-11.87 0,-5.27 -2.297,-9.03 -7.508,-10.73 v -0.17 c 4.422,-1.57 5.821,-4.61 6.239,-11.03 0.488,-6.96 1.211,-8.72 2.004,-9.27 v -0.24 h -5.879 c -0.91,0.79 -1.094,2.42 -1.574,9.69 -0.43,6.37 -2.969,8.6 -8.79,8.6 h -12.05 v -18.29 h -5.45 v 43.31"
         style="fill:#100f0d;fill-opacity:1;fill-rule:nonzero;stroke:none"
         transform="matrix(0.13333333,0,0,-0.13333333,0,336)" />
      <path
         id="path229"
         d="m 744.988,1212.36 h 5.45 v -38.28 h 22.714 v -5.03 h -28.164 v 43.31"
         style="fill:#100f0d;fill-opacity:1;fill-rule:nonzero;stroke:none"
         transform="matrix(0.13333333,0,0,-0.13333333,0,336)" />
      <path
         id="path230"
         d="m 808.176,1173.84 c 10.183,0 14.234,6.54 14.234,16.71 0,10.18 -3.633,17.08 -13.805,17.08 h -10.121 v -33.79 z m -15.141,38.52 h 15.742 c 13.032,0 19.211,-8.84 19.211,-21.81 0,-12.95 -6.601,-21.5 -19.629,-21.5 h -15.324 v 43.31"
         style="fill:#100f0d;fill-opacity:1;fill-rule:nonzero;stroke:none"
         transform="matrix(0.13333333,0,0,-0.13333333,0,336)" />
      <path
         id="path231"
         d="m 871.453,1190.74 c 0,12.71 7.641,22.59 20.539,22.59 10.117,0 16.231,-5.81 17.383,-13.81 h -5.332 c -1.023,5.39 -5.32,9.09 -12.168,9.09 -9.512,0 -14.844,-7.69 -14.844,-17.87 0,-10.61 5.879,-17.75 14.903,-17.75 8.171,0 12.05,5.57 12.597,11.93 h 5.391 c -0.059,-4.3 -2.117,-9.14 -5.203,-12.18 -3.039,-2.97 -7.453,-4.54 -12.973,-4.54 -12.293,0 -20.293,9.4 -20.293,22.54"
         style="fill:#100f0d;fill-opacity:1;fill-rule:nonzero;stroke:none"
         transform="matrix(0.13333333,0,0,-0.13333333,0,336)" />
      <path
         id="path232"
         d="m 930.52,1212.36 h 5.449 v -38.28 h 22.715 v -5.03 H 930.52 v 43.31"
         style="fill:#100f0d;fill-opacity:1;fill-rule:nonzero;stroke:none"
         transform="matrix(0.13333333,0,0,-0.13333333,0,336)" />
      <path
         id="path233"
         d="m 986.926,1186.68 h 14.164 l -4.957,14.54 c -0.852,2.42 -1.945,6.11 -1.945,6.11 h -0.118 c 0,0 -1.148,-3.63 -2,-6.11 z m 4.109,25.68 h 6.121 l 15.994,-43.31 h -5.93 l -4.61,13.2 h -17.266 l -4.66,-13.2 h -5.579 l 15.93,43.31"
         style="fill:#100f0d;fill-opacity:1;fill-rule:nonzero;stroke:none"
         transform="matrix(0.13333333,0,0,-0.13333333,0,336)" />
      <path
         id="path234"
         d="m 1028.96,1183.71 h 5.33 c 0.73,-7.33 5.21,-11.14 13.39,-11.14 5.99,0 10.3,2.72 10.3,8.11 0,5.94 -5.22,7.34 -12.97,9.02 -7.63,1.7 -14.17,3.88 -14.17,12.07 0,7.14 5.94,11.44 14.72,11.44 10.84,0 15.33,-5.51 16.41,-13.51 h -5.14 c -0.79,6.19 -4.79,9.27 -11.15,9.27 -5.88,0 -9.75,-2.48 -9.75,-6.97 0,-4.9 4.84,-6.36 11.33,-7.63 8.41,-1.7 16.11,-3.76 16.11,-13.5 0,-8.13 -6.6,-12.67 -15.94,-12.67 -12.17,0 -17.99,6.79 -18.47,15.51"
         style="fill:#100f0d;fill-opacity:1;fill-rule:nonzero;stroke:none"
         transform="matrix(0.13333333,0,0,-0.13333333,0,336)" />
      <path
         id="path235"
         d="m 1081.36,1183.71 h 5.33 c 0.73,-7.33 5.21,-11.14 13.39,-11.14 5.99,0 10.3,2.72 10.3,8.11 0,5.94 -5.21,7.34 -12.97,9.02 -7.62,1.7 -14.17,3.88 -14.17,12.07 0,7.14 5.94,11.44 14.72,11.44 10.84,0 15.33,-5.51 16.41,-13.51 h -5.14 c -0.79,6.19 -4.79,9.27 -11.14,9.27 -5.88,0 -9.76,-2.48 -9.76,-6.97 0,-4.9 4.84,-6.36 11.33,-7.63 8.42,-1.7 16.11,-3.76 16.11,-13.5 0,-8.13 -6.6,-12.67 -15.94,-12.67 -12.16,0 -17.98,6.79 -18.47,15.51"
         style="fill:#100f0d;fill-opacity:1;fill-rule:nonzero;stroke:none"
         transform="matrix(0.13333333,0,0,-0.13333333,0,336)" />
      <path
         id="path236"
         d="m 1169,1186.68 h 14.17 l -4.96,14.54 c -0.85,2.42 -1.94,6.11 -1.94,6.11 h -0.12 c 0,0 -1.15,-3.63 -2,-6.11 z m 4.12,25.68 h 6.12 l 15.99,-43.31 h -5.93 l -4.61,13.2 h -17.27 l -4.66,-13.2 h -5.57 l 15.93,43.31"
         style="fill:#100f0d;fill-opacity:1;fill-rule:nonzero;stroke:none"
         transform="matrix(0.13333333,0,0,-0.13333333,0,336)" />
      <path
         id="path237"
         d="m 1214.37,1212.36 h 30.59 v -4.78 h -25.14 v -13.7 h 22.84 v -4.6 h -22.84 v -15.2 h 25.87 v -5.03 h -31.32 v 43.31"
         style="fill:#100f0d;fill-opacity:1;fill-rule:nonzero;stroke:none"
         transform="matrix(0.13333333,0,0,-0.13333333,0,336)" />
      <path
         id="path238"
         d="m 1263.19,1183.71 h 5.34 c 0.73,-7.33 5.21,-11.14 13.38,-11.14 6,0 10.31,2.72 10.31,8.11 0,5.94 -5.22,7.34 -12.97,9.02 -7.63,1.7 -14.17,3.88 -14.17,12.07 0,7.14 5.94,11.44 14.71,11.44 10.84,0 15.34,-5.51 16.42,-13.51 h -5.15 c -0.79,6.19 -4.78,9.27 -11.14,9.27 -5.88,0 -9.75,-2.48 -9.75,-6.97 0,-4.9 4.84,-6.36 11.32,-7.63 8.42,-1.7 16.12,-3.76 16.12,-13.5 0,-8.13 -6.6,-12.67 -15.94,-12.67 -12.17,0 -17.99,6.79 -18.48,15.51"
         style="fill:#100f0d;fill-opacity:1;fill-rule:nonzero;stroke:none"
         transform="matrix(0.13333333,0,0,-0.13333333,0,336)" />
      <path
         id="path239"
         d="m 1313.48,1212.36 h 34.28 v -4.78 h -14.41 v -38.53 h -5.45 v 38.53 h -14.42 v 4.78"
         style="fill:#100f0d;fill-opacity:1;fill-rule:nonzero;stroke:none"
         transform="matrix(0.13333333,0,0,-0.13333333,0,336)" />
      <path
         id="path240"
         d="m 1367.65,1212.36 h 5.45 v -18.42 h 23.13 v 18.42 h 5.46 v -43.31 h -5.46 v 20.48 h -23.13 v -20.48 h -5.45 v 43.31"
         style="fill:#100f0d;fill-opacity:1;fill-rule:nonzero;stroke:none"
         transform="matrix(0.13333333,0,0,-0.13333333,0,336)" />
      <path
         id="path241"
         d="m 1424.29,1212.36 h 30.58 v -4.78 h -25.13 v -13.7 h 22.83 v -4.6 h -22.83 v -15.2 h 25.87 v -5.03 h -31.32 v 43.31"
         style="fill:#100f0d;fill-opacity:1;fill-rule:nonzero;stroke:none"
         transform="matrix(0.13333333,0,0,-0.13333333,0,336)" />
      <path
         id="path242"
         d="M 1473.71,1212.36 H 1508 v -4.78 h -14.42 v -38.53 h -5.45 v 38.53 h -14.42 v 4.78"
         style="fill:#100f0d;fill-opacity:1;fill-rule:nonzero;stroke:none"
         transform="matrix(0.13333333,0,0,-0.13333333,0,336)" />
      <path
         id="path243"
         d="m 1528,1212.36 h 5.45 v -43.31 H 1528 v 43.31"
         style="fill:#100f0d;fill-opacity:1;fill-rule:nonzero;stroke:none"
         transform="matrix(0.13333333,0,0,-0.13333333,0,336)" />
      <path
         id="path244"
         d="m 1554.56,1190.74 c 0,12.71 7.64,22.59 20.54,22.59 10.11,0 16.23,-5.81 17.38,-13.81 h -5.33 c -1.03,5.39 -5.32,9.09 -12.17,9.09 -9.51,0 -14.84,-7.69 -14.84,-17.87 0,-10.61 5.88,-17.75 14.9,-17.75 8.17,0 12.05,5.57 12.6,11.93 h 5.39 c -0.06,-4.3 -2.12,-9.14 -5.21,-12.18 -3.03,-2.97 -7.45,-4.54 -12.97,-4.54 -12.29,0 -20.29,9.4 -20.29,22.54"
         style="fill:#100f0d;fill-opacity:1;fill-rule:nonzero;stroke:none"
         transform="matrix(0.13333333,0,0,-0.13333333,0,336)" />
      <path
         id="path245"
         d="m 1610.89,1183.71 h 5.33 c 0.73,-7.33 5.22,-11.14 13.39,-11.14 6,0 10.3,2.72 10.3,8.11 0,5.94 -5.21,7.34 -12.97,9.02 -7.62,1.7 -14.17,3.88 -14.17,12.07 0,7.14 5.94,11.44 14.72,11.44 10.84,0 15.33,-5.51 16.42,-13.51 h -5.15 c -0.79,6.19 -4.79,9.27 -11.14,9.27 -5.88,0 -9.76,-2.48 -9.76,-6.97 0,-4.9 4.85,-6.36 11.33,-7.63 8.42,-1.7 16.11,-3.76 16.11,-13.5 0,-8.13 -6.6,-12.67 -15.93,-12.67 -12.17,0 -17.99,6.79 -18.48,15.51"
         style="fill:#100f0d;fill-opacity:1;fill-rule:nonzero;stroke:none"
         transform="matrix(0.13333333,0,0,-0.13333333,0,336)" />
      <path
         id="path246"
         d="M 1649.81,1228.64 H 554.719 v 2.22 H 1649.81 v -2.22"
         style="fill:#100f0d;fill-opacity:1;fill-rule:nonzero;stroke:none"
         transform="matrix(0.13333333,0,0,-0.13333333,0,336)" />
      <path
         id="path247"
         d="M 1649.81,1149.71 H 554.719 v 2.22 H 1649.81 v -2.22"
         style="fill:#100f0d;fill-opacity:1;fill-rule:nonzero;stroke:none"
         transform="matrix(0.13333333,0,0,-0.13333333,0,336)" />
      <path
         id="path248"
         d="m 281.281,1109.28 c -26.035,-20.06 -63.289,-15.28 -83.468,10.63 -20.067,26.03 -15.407,63.41 10.625,83.59 18.273,14.09 42.871,16.36 78.933,6.93 l 19.824,-5.85 c 1.789,-38.93 0.836,-74.64 -25.914,-95.3 z m 197.157,227.85 c -24.836,32.11 -66.497,43.94 -103.153,32.49 -0.015,-0.01 -0.023,-0.02 -0.023,-0.04 v -37.95 c 25.078,13.5 57.199,7.29 75.23,-16.12 20.18,-25.91 15.285,-63.41 -10.625,-83.35 -22.332,-17.43 -57.441,-13.01 -78.937,-7.88 l -19.942,5.97 c -0.238,6.81 -0.476,13.38 -0.476,19.82 v 206.12 c 0,0.46 -0.371,0.83 -0.832,0.83 h -33.207 c -0.461,0 -0.832,-0.37 -0.832,-0.83 v -215.31 l -22.45,6.81 c -29.253,5.97 -65.675,7.4 -96.367,-16.36 -41.195,-32.01 -48.844,-91.59 -16.836,-132.91 32,-41.32 91.59,-48.96 132.785,-16.96 36.782,28.42 40.844,70.57 39.649,112.61 l 22.57,-6.57 c 30.809,-5.49 67.946,-5.37 96.485,16.72 41.32,32 48.843,91.59 16.961,132.91"
         style="fill:#100f0d;fill-opacity:1;fill-rule:nonzero;stroke:none"
         transform="matrix(0.13333333,0,0,-0.13333333,0,336)" />
      <path
         id="path249"
         d="m 401.715,1161.79 6.172,-26.83 c 0.898,-3.91 3.953,-6.97 7.867,-7.87 l 26.824,-6.17 -26.824,-6.17 c -3.914,-0.9 -6.969,-3.95 -7.867,-7.86 l -6.172,-26.83 -6.168,26.83 c -0.902,3.91 -3.957,6.96 -7.867,7.86 l -26.828,6.17 26.828,6.17 c 3.91,0.9 6.965,3.96 7.867,7.87 l 6.168,26.83"
         style="fill:#100f0d;fill-opacity:1;fill-rule:nonzero;stroke:none"
         transform="matrix(0.13333333,0,0,-0.13333333,0,336)" />
    </g>
  </g>
</svg>
